<?xml version="1.0" encoding="utf-8"?>
<!-- Generator: Adobe Illustrator 22.1.0, SVG Export Plug-In . SVG Version: 6.00 Build 0)  -->
<svg version="1.1" id="Layer_1" xmlns="http://www.w3.org/2000/svg" xmlns:xlink="http://www.w3.org/1999/xlink" x="0px" y="0px"
	 width="250.2px" height="250.2px" viewBox="0 0 250.2 250.2" enable-background="new 0 0 250.2 250.2" xml:space="preserve">
<g>
	<path fill="#FFFEFD" d="M125.1,248.65c68.22,0,123.54-55.32,123.54-123.55c0-68.23-55.32-123.55-123.54-123.55
		C56.87,1.55,1.55,56.87,1.55,125.1C1.55,193.33,56.87,248.65,125.1,248.65"/>
	<path fill="#FFD54F" d="M172.05,146.88l-46.64-36.62l-46.26,37.91c-8.59-25.39-8.26-51.82-8.9-78.93h110.26
		C179.89,95.9,180.2,121.89,172.05,146.88 M125.4,129.28l-39.59,34.7c1.49,2.91,3.12,5.79,4.93,8.67
		c8.41,13.42,20.89,23.35,34.68,29.99c13.73-6.64,26.21-16.57,34.62-29.99c2.09-3.34,3.96-6.69,5.63-10.06L125.4,129.28z"/>
	<path fill="#BA0C2F" d="M92.62,87.94c0.05,0.01-0.52,0.41-0.47,0.39c-0.4,0.55-0.38,0.6-0.7,1.13c-0.32,0.53-0.61,1.05-0.78,1.6
		c-0.03,0.1-0.23-0.02-0.33-0.02c-0.17,0-0.22-0.09-0.34-0.09c-0.57,0.03-0.52-0.11-0.96-0.06c-0.29,0.03-0.39,0.06-0.77,0.15
		c-0.06,0.01-0.29,0-0.39-0.03c-0.11-0.04-0.36,0.04-0.41-0.05c-0.18-0.32-0.04-0.66-0.21-0.98c-0.09-0.19-0.5-0.32-0.66-0.46
		c-0.19-0.15-0.42-0.23-0.65-0.32c-0.21-0.07-0.34-0.18-0.56-0.24c-0.22-0.06-0.81-0.21-0.99-0.36c-0.41-0.34-0.54-0.43-0.88-0.83
		c-0.46-0.57-0.53-1.39-0.96-2c-0.42-0.58-0.96-1-1.79-1.14c-1.62-0.28,0.17-0.33-0.47-1.51c-1.05-1.94-2.5-2.28-4.41-2.53
		c-0.43-0.06-0.54-1.58-1.54-1.15c0.66-1.5,1.54-0.84,2.34-1.65c0.43-0.43-0.01-0.55-0.01-0.54c-0.21-0.37-0.67-0.09-0.94-0.3
		c-0.28-0.22-0.52-0.47-0.66-0.8c-0.14-0.33,0.03-0.7-0.2-1.01c-0.03-0.04-0.08-0.14-0.16-0.09c0.49-0.02,0.84-0.37,1.21-0.66
		c0.06-0.04,0.13-0.1,0.2-0.11c0.37-0.05,0.75-0.07,1.08,0.02c0.51,0.13,0.66,0.39,0.54,0.28c-0.38-0.31,0.59,0.3,0.59,0.67
		c0,0.07,0.06,0.4,0.09,0.47c0.15,0.38,0.17,0.75,0.37,0.93c0.09,0.08,0.06,0.11,0.13,0.21c0.06,0.09,0.43,0.14,0.52,0.18
		c0.06,0.03,0.13,0.11,0.18,0.14c0.22,0.14,0.07,0.22,0.26,0.18c0.16-0.03,0.11-0.18,0.09-0.31c-0.07-0.51-0.31-1.19,0.14-1.63
		c0.08-0.08,0.09-0.17,0.2-0.23c0.08-0.04,0.17-0.16,0.22-0.23c0.16-0.21,0.14-0.42,0.24-0.65c0,0.1,0.28,0.19,0.34,0.24
		c0.19,0.14,0.38,0.23,0.6,0.29c0.09,0.02,0.17,0.18,0.21,0.2c0.51,0.19,0.75,1.58,0.74,1.64C81.42,82.28,86.69,86.69,92.62,87.94
		 M77.83,88.63c-0.7-0.38-1.36-0.34-2.05-0.25c-0.26,0.03-0.48,0.39-0.38,0.72c0.28-0.3,0.7,0.14,0.67,0.26
		c-0.26,0.85-0.39,0.97,0.72,1.69c-4.14-0.22-2.73,3.29-2.26,2.46c0.2-0.35,1.72,0.21,1.8,0.63c0.06,0.27-0.09,0.57-0.8,1.84
		c-0.15,0.28,0.6,1.97,0.67,1.59c0.13-0.81,1.04-0.53,1.47-0.27c1.08-0.53,0.78-1.12,1.5-1.2c1.11-0.13,1.29,0.07,1.5,0.74
		c0.09,0.29-0.06,0.77-0.13,0.93c1.37,0.16,2.38-1.69,3.63-1.19c1.81,0.72,4.64,1.61,5.57,0.86c0.29-0.23-0.44-1.95,0.22-4.01
		c-2.96,1.45-6.28,0.54-9.06-0.78C79.33,91.88,79.57,89.57,77.83,88.63 M86.06,80.12c2.08,3.12,6.83,0.57,8.44,1.16
		C92.32,77.45,88.57,80.69,86.06,80.12 M107.05,85.67c0.04-2.78-0.92-5.95-2.7-8.17c0.12,2.83-0.94,5.74-3.44,7.22
		c-3.48,2.07-7.82,3.35-9.02,7.67c-0.44,1.58-1,5.13-0.24,6.69c0.27-0.82,0.75-1.57,1.69-1.6c3.37-0.13,4.35-0.8,6.62-2.43
		c0.8-0.57,2.94,1.78,2.89,1.44c-0.06-0.39-0.15-2.3,0.28-1.95c0.78,0.63,2.11,1.02,3.23,1.04C103.61,92.47,107,88.94,107.05,85.67
		 M91.1,122.48c0.42,0.09,0.11,0.45-0.06,0.55c-0.35,0.23-0.59,0.52-0.81,0.86c-0.16,0.26-0.28,0.53-0.22,0.85
		c0.05,0.23,0.13,0.44,0.21,0.65c0.05,0.13,0.18,0.2,0.27,0.31c0.04,0.04,0.19,0.23,0.2,0.25c-0.09-0.33,0.38-0.66,0.48-0.6
		c2.16,1.25,2.29-1.29,3.58-2.15c0.55-0.37,1.79,0.06,1.47,1.18c1.29-0.69,1.67-2.42,2.67-3.51c2.22-2.41,5.33-4.01,8.28-5.31
		c-1.07-1.13-2.64-2.08-3.44-3.38c-0.4-0.64-0.87-1.9,0.01-1.67c3.63,0.95,5.66-1.27,6.07-4.13c5.37,0.7,6.77-4.38,7.49-8.22
		c0.35-1.86,1.37-2.02,0.26-5.2c-0.46-1.33,2.38-1.76,1.9-4.05c-0.13-0.63-0.92-1.27-1.38-1.35c0.44,1.24-1.63,1.55-1.85,2.05
		c-0.35,0.79-0.86,1.42-0.94,2.25c-1.75-2.42-0.33-5.34,1.32-7.61c2.4-3.3,7.37-1.57,9.46,0.56c0.04-1.07-0.79-2.43-1.47-3.08
		c1.96-0.25,4.08,0.94,6.75-0.48c1.54-0.82,3.1-1.52,3.82-3.34c-3.28,0.45-7.72-2.08-10.67-2.59c-5.51-0.96-9.21,2.8-11.18,7.28
		c-1.96,4.47-0.71,7.81,1.43,11.16c0.54,0.84-1.89,0.29-2.85,0.78c-0.93,0.48-1.31,1.63-1.1,2.65c1.17-1.26,4.29-0.49,4.57,1.67
		c0.38,2.91-2.55,7.15-5.39,5.88c-3.04-1.36-4.76-4.57-5.76-8.17c-2.6,2.24-7.4,0.39-9.63,2.57c-2.12,2.07,3.31,3.48,5.42,4.46
		c0.78,0.36,1.56,1.16,1.43,2.14c-3.31-1.94-7.29,0.26-7.09,3.79c0.15,2.64,3.38,4.28,6.07,4.51c1.12,0.09,1.79,1.34,0.43,2.19
		c-2.39,1.5-5.06,3.16-7.63,0.46c-0.43-0.45-1.97-0.17-2.28,0.66c-0.15,0.4-0.2,1.01-0.13,1.42c0.14-0.25,0.3-0.6,0.52-0.57
		c0.25,0.03,0.56,0.3,0.53,0.49c-0.22,1.33-1.96,0.47-2.5,1.5c-0.02,0.03-0.04,0.05-0.06,0.07c-0.03,0.09-0.08,0.16-0.12,0.24
		c-0.35,0.7-0.84,1.14,0.03,1.68c-0.02-0.13,0.43,0.56,0.42,0.68c0.04-0.63,0.7-0.62,0.7-0.62l0.38,0.04L91.1,122.48z M79.83,109.99
		c0.26,0.04,0.52,0.38,0.3,0.59c-0.23,0.23-0.57,0.34-0.75,0.68c-0.17,0.35-0.07,0.98,0.08,1.23c0.15,0.25,0.44,0.41,0.68,0.6
		c0.04,0.03,0.31,0.25,0.35,0.28c0-0.09-0.2-0.22,0.01-0.47c0.04-0.06,0.27-0.16,0.35-0.11c0.38,0.25,0.65,0.29,1.08,0.17
		c0.32-0.08,0.45-0.13,0.69-0.36c0.43-0.42,0.45-0.87,0.8-1.31l0.72-0.5c0.6-0.3,2.98,1.07,1.29,2.76c1.82-1.16,5.09-2.87,7.68-1.86
		c-1.61-2.56-0.24-6.45,2.7-7.43c-3.28-3.15-6.04-2.98-7.29,0.3c-0.61,1.62,1.29,3.54-0.62,4.35c-1.06,0.45-2.15,0.17-3.18-0.2
		c-1.98-0.7-0.77-3.23-2.38-4.52c-1.08-0.87-3.68-0.72-3.67,1.46c0.11-0.11,0.37-0.37,0.57-0.15c0.42,1.14,0.42,1.45,1.55,1.72
		c0.26,0.06-0.1,0.61-0.29,0.56c-0.36-0.1-0.76-0.08-1.1-0.23c-0.43-0.19-0.92-0.23-1.36-0.09c-0.31,0.09-0.57,0.26-0.8,0.48
		c-0.08,0.08-0.16,0.15-0.23,0.25c-0.1,0.12-0.16,0.25-0.22,0.38c-0.14,0.29-0.13,0.61-0.12,0.92c0,0.11-0.02,0.23,0.03,0.34
		c0.05,0.1,0.04,0.23,0.11,0.31c0.11,0.11,0.18,0.22,0.29,0.32c0.35,0.31,0.77,0.62,1.22,0.66c-0.07-0.05-0.1-0.2-0.12-0.28
		c-0.04-0.15,0.01-0.3,0.09-0.43c0.13-0.22,0.39-0.12,0.61-0.21c0.33-0.15,0.69-0.28,1.03-0.17 M140.07,81.17
		c0.23,0.15-0.01,0.57-0.28,0.65c-0.32,0.09-0.76-0.04-1.03,0.06c-1.23,0.45-1.24,3.49-1.07,3.14c0.19-0.39,1.1-0.14,1.69-0.02
		c0.95,0.19,1.68-1.74,2.3-1.69c1.48,0.14,2.87,1.98,3.43,3.19c0.1,0.22-0.62,0.23-0.67,0.98c2.02-0.19,3.73,1.12,5.19,2.32
		c0.71-1.24,1.43-2,2.24-2.81c-3.04-2.96-9.09-3.88-8.15-9.27c0.12-0.7-0.66-1.3-1.01-1.64c-0.39-0.38-1.29-0.4-1.84-0.53
		c0.58,1.2-0.46,1.31-0.32,3.21c0,0.06-0.17,0.02-0.23-0.01c-0.36-0.15-0.67-0.38-1.02-0.6c-0.32-0.19-0.61-0.14-0.95-0.09
		c-0.21,0.03-0.41,0.13-0.59,0.25c-0.28,0.2-0.43,0.47-0.63,0.76c-0.04,0.05-0.08,0.12-0.12,0.17c-0.07,0.06-0.2,0.27-0.2,0.37
		c0.16-0.02,0.65,0.02,0.73,0.15c0.14,0.22,0.15,0.48,0.31,0.69c0.21,0.27,0.38,0.27,0.69,0.4c0.47,0.2,0.89,0.29,1.41,0.25
		 M147.94,79c-0.49,0.04-1.22-0.37-1.83-0.27c1.48,2.32,4.31,2.95,6.63,1.08c0.23-0.19,0.69-0.12,1.07,0.06
		C151.71,77.4,149.84,78.85,147.94,79 M156.15,85.89c-2.15,1.09-7.92,5.98-5.92,7.83c-0.24-0.23,3.13,0.8,4.3,1.98
		c0.25,0.24,1.26-2.36,5.54-2.23c1.2,0.03,2.44,0.5,3.54,1.17c-0.68-4.82,2.61-9.51,0.96-14.23c-0.04-0.11-0.62-1.98-0.87-1.23
		C162.42,83.04,159.26,84.3,156.15,85.89 M147.63,117.3c0.42,0.66-0.14-0.38,0.35,0.75c2.25-0.95,4.59-2.03,7.09-1.01
		c-1.1-5.08,2.6-6.31,2.89-7.07c0.47-1.22-2.01-3.64-3.88-2.97c-2.38,0.85-1.39,3.86-1.84,5.96c-0.25,1.16-1.69,2.01-2.89,1.6
		c-1.97-0.68-2.76-2.51-3.25-4.57c-0.33-1.37-3-1.54-3.57-0.41c-1.64,3.19,0.97-0.37,0.81,2.05c-0.03,0.41-1.91,0.1-2.34,1.54
		c-0.29,0.97,0.64,1.63,1.8,1.97c0.21,0.06-0.22-0.48,0.07-0.61c0.21-0.08,1.06,0.37,0.96,0.43c-1.12,0.69-1.41,2.28,0.6,2.97
		c0.02,0-0.15-0.57,0.01-0.69c1.56-1.17,3.2,0.09,3.21,0.06 M115.11,149.41c1.61,3.39,4.62,1.23,7.09,0.85
		c-0.4-0.46-1.79-1.37-2.14-1.31C117.6,149.34,116.99,150.27,115.11,149.41 M114.11,151.38c-0.12-0.13-0.28-0.18-0.43-0.24
		c-0.15-0.07-0.32-0.12-0.49-0.15c-0.05-0.01-0.35-0.08-0.4-0.1c-0.01,0.11,0.13,0.4,0.05,0.47c-0.2,0.18-0.27,0.14-0.43,0.38
		c-0.06,0.09-0.12,0.19-0.14,0.29c-0.05,0.22-0.14,0.46-0.17,0.71c-0.01,0.12,0.04,0.42,0.07,0.53c0.02,0.06,0.15,0.33,0.19,0.4
		c0,0,0.3,0.32,0.28,0.31c0.35,0.35,0.06,0.15,0.49,0.57c0.22,0.21-0.1,0.57-0.31,0.51c-1.45-0.42-1.66-2.1-2.98-2.62
		c-0.96-0.37-2.35,0.38-2.49,1.84c0.33-0.09,0.66,0.03,0.72,0.3c0.36,1.48,2.52,0.59,2.57,1.63c0.04,0.69-1.62-0.11-2.27,0.32
		c-0.87,0.58-0.99,2.24-0.22,3.21c0.79-0.75,1.77,0.34,2.53-0.2c0.54-0.38,0.73-0.92,1.28-1.16c1.66-0.74,2.15,0.8,1.78,2.34
		c0.9-0.42,3.01-0.85,3.49-0.99c0.88-0.24,0.92-2.26,1.99-3c-1.52-0.01-3.41-0.67-3.82-2.15c-0.04-0.16,0.07-0.34,0.08-0.52
		c0.04-0.57-0.01-1.11-0.23-1.64c-0.02-0.05-0.07-0.12-0.12-0.19c-0.06-0.09-0.11-0.17-0.17-0.26c-0.15-0.21-0.37-0.3-0.59-0.44
		c-0.1-0.06-0.21-0.08-0.28-0.17 M102.93,161.86c0.67,1.29-2.61-0.78-3.84,1.14c-0.39,0.61-0.18,2-0.18,2.78
		c0.75-0.69,1.5,0.61,2.91-0.63c0.15,0.14,0.32,0.23,0.11,0.44c-0.51,0.53-0.81,1.18-0.53,1.81c0.17,0.41,1.34,1.23,1.35,1.17
		c0.12-0.85,1.56,0,1.79-1.66c0.09-0.68,0.29-1.82,1.29-1.41c0.9,0.37,1.09,1.4,0.88,2.41c1.44-0.47,3.97-1.95,5.49-0.85
		c2.03,1.47,5.37,2.07,7.74,2.81c-1.58-1.09-2.08-3.95-1.81-5.81c-3.75,0.73-7.67,0.61-11.14-0.99c-0.95-0.44-0.82-1.54-1.11-2.44
		c-0.32-1.01-1.6-1.95-2.76-1.86c-0.62,0.04-2.12,1.36-1.84,1.42c-0.1-0.02-0.09,0.19-0.14,0.28c0.28-0.18,0.64,0,0.77,0.3
		c0.09,0.21,0.18,0.44,0.36,0.62C102.45,161.58,102.82,161.63,102.93,161.86 M111.9,182.31c0.73-0.89,1.33-0.42,1.65-0.41
		c0.76,0.02,0.71,1.1,0.63,1.78c2.98-1.44,5.81-3.49,9.31-2.74c-2.04-2.13-1.32-6.7,1.56-7.26c0.01,0-1.85-0.3-2.05-0.43
		c-2.5-1.59-5.56-3.1-7.24,0.23c-0.83,1.65,0.7,2.98,1.85,4.35c0.21,0.24-0.13,0.39-0.4,0.46c-2.73,0.7-7.77,1.11-8-2.98
		c-0.02-0.41-1.08-0.75-1.76-0.74c-2.02,0.06-2,2.64-1.76,2.46c0.45-0.34,1.8-0.22,1.64,0.82c-0.15,0.97-2.04-0.5-2.79,0.46
		c-0.63,0.81-0.61,2.14-0.16,3.04c-0.09-0.33,0.29-0.57,0.5-0.61c2.1-0.35,2.21,0.38,1.59,2.41c-0.05,0.15,0.62,1.44,1.06,1.56
		c-0.03-0.01-0.02-0.29,0.04-0.39c0.06-0.1,0.16-0.17,0.27-0.21c0.23-0.07,0.46-0.06,0.69-0.12c0.11-0.03,0.2-0.1,0.3-0.17
		c0.17-0.11,0.28-0.25,0.4-0.4c0.49-0.61,0.92-1.4,1.74-1.48c0.38-0.04,0.62,0.13,0.95,0.34 M133.63,191.8
		c1.92-1.9,3.31-4.45,5.36-6.3c-2.25-1.33-5.04-2.71-5.33-5.68c-0.02-0.2,0.32-0.43,0.39-0.39c3.13,1.76,7.35,1.9,9.61-1.3
		c1.82-2.58,2.61-6.77,6.16-7.02c-1.18-2.27,0.14-4.89,2.09-6.09c-0.65-0.25-1.5-0.78-2.23-0.65c-0.89,0.15-1.28,1.37-2.3,1.55
		c1.61-5.41-1.5-12.98-7.46-12.85c-1.12,0.02-2.57,0.92-2.94,2.15c-0.34,1.16-0.52,2.6,0.31,3.59c1.96,2.34,3.36,4.89,2.75,7.97
		c1.39-1.2,2.68-2.97,2.63-4.85c-0.01-0.47,0.84-0.13,0.98-0.33c1.63-2.39-1.04-3.87-2.46-5.37c-0.39-0.41,0.61-1.04,0.74-1
		c5.12,1.53,5.6,7.84,3.41,11.93c-0.58-0.73-2.75-0.49-3.48-0.74c2.39,1.21,1.77,1.38,1.67,1.77c-0.18,0.72-2.33,0.41-2.74,0.94
		c-0.72,0.92-1.26,1.32-1.31,4.37c0.99-1.07,2.29-2.7,3.7-1.97c3.01,1.55-0.15,6.76-2.99,7.62c-2.43,0.73-4.67-0.04-6.18-2.15
		c-2.17-3.06-0.59-6.76-2.14-9.86c-1.29,0.31-1,2-1.66,1.69c-2.37-1.1-3.71-3.62-5.43-5.74c-0.71,0.25-1.02,0.91-1.71,0.88
		c-1.01-0.04-2.92-0.35-3.33,0.15c-0.47,0.59-0.82,4.89,3.36,6.45c2.84,1.06,5.09,2,6.87,4.22c-1.2,0.1-1.62-0.48-2.6-0.52
		c-0.96-0.04-1.57,0.34-2.3,0.72c-0.69,0.36-1.51,1.72-1.37,2.81c0.65,5.2,6.76,5.27,9.58,8.57c0.48,0.56-0.74,2.82-1.89,3.73
		c-0.98,0.79-3.33-1.18-2.95-2.84c0.31-1.33-2.9-2.21-4.02-0.7c0.45-0.05,0.56,0.24,0.52,0.45c-0.2,1.22,1.32,1.27,1.27,1.89
		c-0.07,0.86-0.81-0.36-1.4-0.47c-1.3-0.26-2.58,0.19-3.34,1.23c-0.23,0.31-0.74,0.81-0.51,1.35c0.99-0.49,1.51,1.06,2.43,0.58
		c0.56-0.29,1.02-0.78,1.7-0.61c0.27,0.07,0.55,0.44,0.3,0.59c-1.8,1.16-3.24,2.78-1.94,4.63c0.04-0.43,0.38-0.73,0.65-0.81
		c0.53-0.15,1.23,0.21,1.74,0.04c0.84-0.28,0.4-1.11,0.72-1.71c0.5-0.93,2.21-2.49,3.16-1.36c0.17,0.2,0.04,0.96-0.48,0.98
		c0.53-0.01,1,0.51,1.45,0.41c0.13-0.03,0.26-0.02,0.38-0.08c0.1-0.05,0.22-0.07,0.29-0.15c0.22-0.21,0.46-0.44,0.49-0.77
		c0.39,0.03,0.88,0.07,1.13-0.26c0.25-0.33,0.55-0.59,0.83-0.84 M124.91,154.17c-3.28,0.91-5.16,3.87-6.15,6.8
		c-0.07,0.2-0.15,0.43-0.22,1.16c-0.03,0.29,1.89-1.99,3.22-1.32c0.06,0.29-0.29,1.68-0.67,2.02c1.7-0.26,3.99-0.52,5.11-1.74
		c0.18-0.2,0.07,1.18,0.34,1.83c0.72,1.71,2.28,3.03,3.75,3.93c0.39,0.24,0.34-0.77,1.15-1.41c0.65-0.51,1.83,0.6,2.39,0.85
		c0.46,0.2-0.55-1.53-0.66-2.08c-0.99-4.89,1.05-8.91,0.98-13.59c-0.01-0.84-0.33-2.24-1.35-2.85
		C131.98,151.49,128.26,153.23,124.91,154.17 M101.44,74.7c-1.41,0.04-2.67-1.17-4.05-0.66c-1.58,0.59-3.12,1.33-4.82,1.77
		c-0.61,0.16-1.65,0.84-1.41,1.96c1.61-0.63,3.74-1.47,4.77,0.33c0.62,1.09,0.39,2.07-0.08,3.4c-0.38,1.08-2.27,1.39-3.7,1.2
		c0.24,0.16,0.51,0.75,0.3,1.14c3.21-0.81,7.9,0.4,10.06-3.24c0.73-1.24-0.27-2.45,0.07-3.7c0.16-0.61,1-1,1.33-1.66
		c0.27-0.52-0.45-1.21-0.41-1.71C102.96,74.14,102.31,74.68,101.44,74.7 M99.07,76.51c-1.08,0.5-3.52,0.83-3.1-0.2
		c0.62-1.52,2.08-1.69,3.3,0.01C99.28,76.35,99.21,76.45,99.07,76.51 M160.35,81.73c1.36-0.65,1.44-2.45,1.96-3.74
		c0.36-0.88,1.37-0.83,1.73-1.8c0.11-0.28,0.11-1.68-0.1-1.59c-0.87,0.37-2.19,0.96-3.12,0.7c-3.08-0.85-3.86-2.43-6.81-0.25
		c-0.88,0.65-2.57-0.04-3.66,1.36c-0.17,0.22-0.14,0.85-0.14,1.18c1.54,0.08,3.77-1.66,4.7,0.12c0.16,0.3,0.32,0.6,0.34,0.92
		c0.01,0.06,0.02,0.13,0.03,0.19c0.08,0.42,0.04,0.83,0.01,1.24c-0.04,0.55-0.3,0.96-0.65,1.38c-0.11,0.14-0.28,0.2-0.4,0.32
		c-0.06,0.05-0.12,0.1-0.18,0.15c-0.17,0.13-0.36,0.19-0.55,0.27c-0.14,0.07-0.28,0.11-0.44,0.13c-0.09,0.01-0.2,0.01-0.28,0.02
		c-0.02,0-0.53-0.05-0.55-0.04c-0.37,0.03-0.42-0.16-0.67,0.06c-0.2,0.16-0.22,0.43-0.25,0.67c0.24,0,0.47,0.05,0.69,0.12
		c0.33,0.11,0.67,0.21,1.02,0.26c0.61,0.1,0.72,0.06,1.33,0.07c0.25,0.01,1.04-0.02,1.3-0.02c0.26,0,0.38-0.01,0.64-0.05
		c0.43-0.06,0.33,0,0.79-0.12c0.17-0.04,0.63-0.25,0.79-0.34c0.33-0.2,0.62-0.43,0.93-0.66c0.52-0.36,1.29-0.34,1.75-0.74
		 M158.43,75.86c-1.15,0.62-4.1,1.53-3.66,0.23C155.37,74.32,157.1,75.19,158.43,75.86C158.32,75.97,158.56,75.79,158.43,75.86
		 M129.14,144.66c-2.06-0.48-3.69-1-5.18,0.03c0.06-0.04-1.13,1.25-1.07,1.26c-2.28-0.14-3.73,1.41-3.38,2.34
		c0.84-0.37,1.65-1.11,2.56-0.63c0.79,0.42,1.17,2.55,0.84,3.42c-0.24,0.63-1.07,1.42-2.13,1.47c-0.49,0.02-0.23,0.7-0.26,1.08
		c3.05-0.25,6.36-1.94,9.01-3.35c1.33-0.71,1.3-2.08,1.78-3.46c0.31-0.9,2-1.14,1.57-2.98
		C131.99,145.02,130.51,144.98,129.14,144.66 M125.09,147.04c-0.16-0.06-0.34-0.12-0.46-0.27c-0.15-0.19-0.2-0.5-0.14-0.72
		c0.04-0.19,0.17-0.32,0.32-0.45c0.14-0.13,0.37-0.13,0.53-0.2c0.1-0.05,0.15-0.14,0.27-0.19c0.09-0.04,0.17-0.05,0.25-0.03
		c0.33,0.07,0.57,0.29,0.9,0.33c0.44,0.05,0.85,0.08,1.29,0.18c0.02,0,0.04,0.03,0.03,0.05c-0.11,0.11-0.2,0.25-0.34,0.32
		C127.18,146.38,125.62,147.24,125.09,147.04 M169.05,131.74c-0.04-0.45,1.08-1.79,1.11-2.77c0.11-3.34,2.11-4.91,2.17-8.48
		c0.02-0.93-3.84-1.8-4.01-3.81c-0.08-0.99-0.41-2.43,0.59-2.41c1.28,0.03,2.54-0.2,3.44-1c4.03-3.55,0.62-8.4,0.14-12.68
		c-0.11-0.94,1.63-2.96,1.58-3.63c-0.28-3.63-0.95-6.94,0.34-10.51c-1.01,0.9-1.32,2.4-2.17,3.17c-0.42,0.38-0.62-0.46-0.59-0.6
		c0.51-3.14,1.76-5.89,3.21-8.87c1.72-3.54,0.86-6.4-2.32-7.46c-2.92-0.97-5.73,1.74-6.05,4.53c-0.29,2.56,0.51,5.62,1.11,7.72
		c0.18,0.61,0.07,1.31,0.2,1.84c0.52-2.12,0.58-4.32,0.54-6.56c-0.01-0.54,0.43-1.27,0.99-1.44c1.89-0.55,2.87,0.82,2.74,1.88
		c-0.41,3.35-1.09,5.92-1.89,9.24c-0.91,3.8,0.45,7.57,0.85,11.26c-1.46-0.85-3.04-0.9-3.61,1.37c-0.3,1.21,0.79,2.48,1.12,3.54
		c0.04-1.45,1.4-3.43,2.74-2.55c1.63,1.09,1.69,6.3,1.33,6.99c-0.79,1.51-2.1,2.59-3.91,2.06c-1.02-0.3-0.6-1.81-1.22-2.45
		c-3.25-3.36-4.73-7.38-5.01-12.02c-0.04-0.68,0.31-2.46,0.21-2.5c-4.24-1.75-6.21,0-7.97,2.5c-0.31-0.76-1.93-1.82-2.06-1.58
		c-0.8,1.5-0.58,4.21,0.64,5.27c3.27,2.83,6.52,4.73,8.36,8.79c-1.96,0.26-3.88,0.82-4.64,2.88c-0.79,2.14-0.52,5.13,1.75,6
		c1.84,0.71,5.01-0.09,5.71,0.01c1.96,0.26,4.16,1.95,3.85,3.8c-0.02,0.09-0.84,4.43-2.72,3.35c-1.02-0.58-0.44-2.96-1.99-3.33
		c-2.08-0.5-2.6,2.41-2.34,2.16c0.66-0.63,1.13,0.41,2.42,1.12c-4.36-0.95-3.01,3.05-2.85,2.61c0.22-0.62,1.01,0.02,2.58-0.08
		c0.06,0-0.34,0.33-0.36,0.36c-0.24,0.4-0.36,0.6-0.54,1.03c-0.09,0.2-0.07,0.42-0.05,0.63c0.02,0.21,0.1,0.4,0.21,0.59
		c0.02,0.04,0.06,0.07,0.11,0.1c0.02,0.01,0.08,0.11,0.09,0.11c0.1,0.01-0.09-0.31,0.17-0.33c0.06-0.01,0.24-0.03,0.29-0.02
		c0.12,0.04,0.27,0.12,0.39,0.15c0.11,0.03,0.23,0.06,0.35,0.07c0.3,0.04,0.4,0.05,0.67-0.04c0.22-0.07,0.43-0.12,0.64-0.27
		c-0.28,0.19,0.31-0.28,0.28-0.23c0.27-0.58,0.44-0.41,0.5-0.52c0.46-0.89,0.87-0.97,1.89-0.84c0.1,0.01,0.29,0.22,0.35,0.31
		c0.07,0.11,0.28,0.67,0.25,0.46C168.76,131.09,169.01,131.35,169.05,131.74 M138.01,92.34c0.22,0.19-0.31,0.39-0.45,0.23
		c-1.91-2.25-5.13-1.94-4.87,1.67c1.22-0.62,1.39,1.06,2.17,0.6c0.67-0.4,1.25-0.87,1.93-0.55c0.41,0.19,0.29,0.96-0.04,1.08
		c-3.51,1.25-0.68,3.55-1.25,4.03c0.49-0.42,1.94-0.41,3.33-2.49c0.29-0.43,1.97-0.47,2.6-0.28c0.96,0.29-0.07,1.75,0.36,1.68
		c1.05-0.18,3.21,1.02,4.14,1.9c2.08,1.97,3.68,1.7,6.08,3c-1.65-1.5-1.66-4.14-1.14-6.22c-2.14,0.04-4.23-0.61-6.31-1.12
		c-4-0.98-3.75-5.09-4.47-6.76l-0.24-0.27c-0.19-0.69-1.05-1.01-1.74-1.09c-0.07-0.01-0.14-0.03-0.21-0.04
		c-0.18-0.04-0.36-0.04-0.55-0.05c0.22,0.07,0.21,0.33,0.1,0.48c-0.01,0.01-0.02,0.07-0.06,0.05c0.03,0.07-0.06,0.07-0.08,0.12
		c-0.01,0.05-0.1,0.08-0.13,0.14c-0.01,0.02-0.01,0.06-0.03,0.07c-0.56,0.41-0.65,1.15-0.48,1.77c0.04,0.13,0.08,0.26,0.17,0.36
		c0.06,0.06,0.11,0.13,0.17,0.19c0.18,0.17,0.27,0.57,0.53,0.74L138.01,92.34z"/>
	<path d="M125.1,0.1c-69.04,0-125,55.96-125,125s55.96,125,125,125c69.04,0,125-55.96,125-125S194.14,0.1,125.1,0.1z M125.09,247.55
		c-67.63,0-122.45-54.82-122.45-122.45S57.47,2.64,125.09,2.64c67.63,0,122.45,54.82,122.45,122.45S192.72,247.55,125.09,247.55z
		 M125.1,5.71C59.17,5.71,5.71,59.16,5.71,125.1c0,65.94,53.45,119.39,119.39,119.39s119.39-53.45,119.39-119.39
		C244.49,59.16,191.04,5.71,125.1,5.71z M125.09,214.05c-49.13,0-88.96-39.83-88.96-88.96s39.83-88.96,88.96-88.96
		c49.13,0,88.96,39.83,88.96,88.96S174.22,214.05,125.09,214.05z M125.1,39.17c-47.46,0-85.93,38.47-85.93,85.93
		s38.47,85.93,85.93,85.93s85.93-38.47,85.93-85.93S172.55,39.17,125.1,39.17z M125.09,209.57c-46.65,0-84.47-37.82-84.47-84.47
		s37.82-84.47,84.47-84.47c46.65,0,84.47,37.82,84.47,84.47S171.75,209.57,125.09,209.57z M179.37,77.05
		c-0.47,23.21-0.92,45.52-7.49,67.06l-46.35-38.22l-46.54,38.33c-6.6-21.58-7.06-43.94-7.52-67.2c-0.04-2.21-0.09-4.42-0.14-6.64
		h108.18C179.46,72.61,179.42,74.83,179.37,77.05 M159.21,172.03c-7.61,12.13-19.27,22.27-33.76,29.36
		c-14.5-7.07-26.19-17.22-33.81-29.36c-1.28-2.04-2.46-4.08-3.58-6.13l37.47-30.85l37.3,30.76
		C161.7,167.89,160.5,169.96,159.21,172.03 M81.25,150.91l44.28-36.46l44.1,36.36c-1.11,3-2.35,5.99-3.74,8.95l-40.35-33.27
		L85,159.87C83.61,156.9,82.36,153.91,81.25,150.91 M69.13,68.15l0.03,1.14c0.06,2.6,0.11,5.19,0.16,7.78
		c0.68,33.72,1.32,65.58,20.52,96.18c7.92,12.62,20.08,23.13,35.16,30.38l0.45,0.22l0.45-0.22c15.06-7.27,27.2-17.78,35.1-30.38
		c19.19-30.59,19.84-62.43,20.51-96.15c0.05-2.59,0.11-5.2,0.17-7.81l0.03-1.14H69.13z"/>
	<path fill="#FFFEFD" d="M23.2,157.06c-3.54,0.84-4.19,1-4.92,1.22c-0.78,0.24-1.11,0.51-1.09,1.32c0,0.2,0.07,0.6,0.15,0.92
		c0.06,0.26,0.05,0.41-0.12,0.45c-0.16,0.04-0.25-0.11-0.33-0.46c-0.29-1.23-0.57-2.72-0.74-3.41c-0.13-0.56-0.55-2.01-0.75-2.85
		c-0.08-0.35-0.07-0.52,0.09-0.56c0.16-0.04,0.24,0.09,0.3,0.32c0.06,0.26,0.12,0.39,0.23,0.66c0.27,0.6,0.7,0.69,1.53,0.54
		c0.76-0.13,1.41-0.29,4.94-1.13l3.26-0.78c3.37-0.8,4.63-1.82,5.29-3.18c0.61-1.25,0.45-2.35,0.26-3.14
		c-0.25-1.02-0.87-2.2-2.03-2.91c-1.58-0.98-3.7-0.54-6.09,0.03l-2.91,0.69c-3.54,0.84-4.19,1-4.92,1.22
		c-0.78,0.23-1.11,0.51-1.09,1.32c0,0.2,0.07,0.6,0.13,0.86c0.06,0.25,0.05,0.41-0.11,0.45c-0.16,0.04-0.25-0.11-0.33-0.44
		c-0.28-1.19-0.56-2.67-0.57-2.69c-0.07-0.28-0.49-1.73-0.7-2.64c-0.08-0.33-0.07-0.5,0.09-0.54c0.16-0.04,0.24,0.09,0.31,0.37
		c0.06,0.25,0.12,0.39,0.23,0.66c0.27,0.6,0.71,0.69,1.53,0.55c0.75-0.13,1.4-0.29,4.94-1.13l2.49-0.59
		c2.58-0.62,5.39-1.02,7.53,0.54c1.81,1.31,2.47,2.93,2.83,4.44c0.3,1.23,0.76,3.49-0.37,5.55c-0.79,1.44-2.3,2.74-5.67,3.54
		L23.2,157.06z M16.55,133.07V133c0.45-0.43,3.4-3.13,5.95-5.78c2.43-2.52,5.52-5.63,6.93-7.16c0.26-0.27,0.52-0.56,0.52-0.82
		c0-0.22-0.22-0.31-0.75-0.3l-15.09-0.05c-1.34,0-1.85-0.19-2.05-0.85c-0.08-0.29-0.08-0.48-0.08-0.72c0-0.29-0.08-0.43-0.22-0.43
		c-0.19,0.01-0.21,0.24-0.21,0.56c0.02,1.17,0.1,2.08,0.11,2.34c0.01,0.5-0.05,1.65-0.03,2.89c0,0.36,0.03,0.62,0.22,0.62
		c0.14,0,0.22-0.1,0.21-0.39c-0.01-0.33-0.01-0.91,0.12-1.27c0.23-0.58,0.68-0.8,2.14-0.84l10.74-0.39l0,0.12
		c-0.38,0.41-3.77,3.69-5.38,5.34c-3.42,3.54-7.26,7.23-7.57,7.53c-0.42,0.41-0.73,0.64-0.73,0.9c0,0.24,0.34,0.31,0.82,0.3
		l14.16,0.01c2.08-0.01,2.78,0.08,2.98,0.7c0.1,0.33,0.13,0.77,0.14,1.08c0,0.24,0.05,0.38,0.2,0.38c0.21,0,0.23-0.22,0.23-0.53
		c-0.02-1.24-0.11-2.37-0.11-2.58c-0.01-0.46,0.05-1.41,0.03-2.97c0-0.33-0.06-0.55-0.25-0.55c-0.14,0-0.19,0.15-0.19,0.41
		c0.01,0.38-0.01,0.84-0.15,1.25c-0.16,0.48-0.78,0.8-2.64,0.87L16.55,133.07z M23.83,110.57c2.29,0.36,4.16,0.66,5.13,0.93
		c0.68,0.18,1.06,0.38,1.08,0.87c0.01,0.22,0.02,0.51-0.04,0.87c-0.05,0.28,0.01,0.39,0.13,0.41c0.17,0.02,0.26-0.13,0.31-0.43
		c0.15-0.95,0.31-2.45,0.4-2.99c0.1-0.64,0.41-2.12,0.65-3.67c0.04-0.26,0-0.46-0.16-0.49c-0.12-0.02-0.21,0.09-0.25,0.35
		c-0.06,0.36-0.18,0.87-0.28,1.19c-0.21,0.69-0.66,0.79-1.31,0.76c-1.03-0.07-2.9-0.36-5.19-0.72l-4.16-0.66
		c-3.59-0.57-4.25-0.67-5-0.83c-0.82-0.18-1.19-0.43-1.21-1.09c0-0.29,0-0.48,0.04-0.72c0.04-0.24,0.01-0.38-0.18-0.41
		c-0.14-0.02-0.22,0.16-0.27,0.47c-0.14,0.9-0.29,2.3-0.38,2.9c-0.11,0.68-0.41,2.16-0.56,3.06c-0.06,0.38-0.04,0.57,0.1,0.6
		c0.19,0.03,0.26-0.11,0.3-0.34c0.05-0.28,0.12-0.59,0.23-0.83c0.2-0.5,0.64-0.67,1.45-0.59c0.76,0.07,1.42,0.17,5.02,0.74
		L23.83,110.57z M32.88,96.73c1.21-0.09,1.57-0.13,1.67-0.42c0.1-0.32-0.22-0.57-1.35-1.59c-0.98-0.87-3.12-2.73-5.99-5.24
		c-2.41-2.13-3.45-3.13-5.3-4.7c-1.26-1.08-1.54-1.54-1.65-1.91c-0.14-0.5,0.01-0.98,0.08-1.2c0.07-0.23,0.07-0.38-0.09-0.43
		c-0.16-0.05-0.26,0.12-0.36,0.41c-0.22,0.68-0.49,1.78-0.61,2.16c-0.09,0.3-0.47,1.23-0.83,2.37c-0.14,0.43-0.16,0.66,0.03,0.71
		c0.16,0.05,0.24-0.12,0.3-0.33c0.09-0.3,0.23-0.63,0.4-0.88c0.14-0.18,0.35-0.22,0.53-0.16c0.2,0.06,0.52,0.27,0.78,0.47
		c1.33,1.03,7.73,6.33,9.92,8.1l-0.03,0.09l-11.6,0.63c-0.92,0.06-1.63,0.06-1.92-0.04c-0.2-0.06-0.34-0.18-0.41-0.38
		c-0.08-0.23,0.01-0.57,0.12-0.94c0.07-0.2,0.06-0.35-0.1-0.41c-0.16-0.05-0.28,0.19-0.37,0.46c-0.36,1.14-0.64,2.25-0.82,2.82
		c-0.25,0.8-0.74,2.08-1.12,3.28c-0.11,0.34-0.17,0.6,0.02,0.66c0.14,0.04,0.23,0,0.29-0.21c0.06-0.18,0.17-0.55,0.37-0.86
		c0.49-0.75,0.87-1.06,2.28-1.18L32.88,96.73z M32.7,81.08c1.95,1.02,3.63,1.89,4.46,2.47c0.57,0.41,0.98,0.76,0.84,1.22
		c-0.06,0.21-0.15,0.49-0.31,0.81c-0.13,0.26-0.11,0.37-0.01,0.43c0.15,0.08,0.29-0.04,0.43-0.31c0.44-0.85,1.08-2.22,1.33-2.71
		c0.66-1.25,1.52-2.6,3.2-5.81c0.42-0.81,0.52-1,0.05-1.43c-0.37-0.33-1.72-1.25-2.21-1.51c-0.21-0.11-0.38-0.2-0.47-0.03
		c-0.08,0.15-0.02,0.23,0.2,0.4c0.79,0.6,1.1,1.09,1.07,1.77c-0.03,0.68-0.5,1.57-0.79,2.13c-1.13,2.16-1.63,2.34-3.11,1.61
		c-0.63-0.3-2.57-1.34-3.29-1.72l-1.67-0.88c-0.13-0.07-0.2-0.13-0.14-0.24c0.27-0.51,1.38-2.6,1.64-2.98
		c0.49-0.74,0.96-0.87,1.45-0.75c0.31,0.08,0.59,0.22,0.81,0.31c0.11,0.06,0.21,0.06,0.29-0.09c0.1-0.19-0.13-0.31-0.3-0.4
		c-0.15-0.08-0.97-0.56-1.38-0.83c-1.05-0.63-1.33-0.91-1.46-0.98c-0.13-0.07-0.2-0.02-0.25,0.06c-0.06,0.11,0.01,0.25,0.1,0.48
		c0.11,0.3,0.01,0.65-0.21,1.18c-0.21,0.51-1.49,2.95-1.73,3.41c-0.07,0.13-0.16,0.11-0.31,0.03l-5.36-2.8
		c-0.15-0.08-0.19-0.15-0.13-0.26c0.22-0.43,1.43-2.63,1.66-2.97c0.68-0.99,1.04-1.07,1.5-1.02c0.31,0.03,0.68,0.19,0.83,0.27
		c0.19,0.1,0.32,0.11,0.4-0.04c0.08-0.15-0.03-0.26-0.12-0.33c-0.23-0.17-1.14-0.7-1.35-0.84c-0.94-0.57-1.14-0.81-1.29-0.89
		c-0.11-0.06-0.2-0.08-0.26,0.02c-0.06,0.11-0.06,0.27-0.09,0.38c-0.05,0.19-0.18,0.55-0.35,0.98c-0.19,0.41-2.39,4.63-2.75,5.31
		c-0.31,0.6-1.07,1.9-1.66,3.02c-0.16,0.32-0.2,0.49-0.05,0.57c0.15,0.08,0.26-0.03,0.38-0.26c0.15-0.3,0.36-0.65,0.5-0.79
		c0.51-0.62,0.94-0.62,1.68-0.28c0.7,0.31,1.29,0.62,4.52,2.31L32.7,81.08z M40.92,66.81c1.74,1.34,3.24,2.5,3.96,3.21
		c0.49,0.5,0.83,0.92,0.62,1.35c-0.09,0.2-0.23,0.46-0.45,0.74c-0.17,0.23-0.18,0.35-0.08,0.42c0.13,0.1,0.29,0.01,0.48-0.23
		c0.58-0.76,1.45-2,1.72-2.36c0.22-0.28,1.36-1.64,2.21-2.74c0.19-0.25,0.23-0.43,0.1-0.53c-0.1-0.07-0.21-0.04-0.33,0.11
		c-0.17,0.23-0.53,0.61-0.79,0.87c-0.51,0.51-1.02,0.3-1.61-0.06c-0.87-0.52-2.36-1.67-4.13-3.03l-0.27-0.2
		c-0.11-0.09-0.11-0.17-0.04-0.27l1.31-1.62c0.1-0.13,0.21-0.23,0.39-0.24c0.48-0.02,2.44,0.1,4.06,0.14
		c2.28,0.06,3.72,0.03,4.79-0.45c0.64-0.29,1.1-0.69,1.92-1.75l1.38-1.8c0.18-0.23,0.24-0.39,0.09-0.51
		c-0.09-0.07-0.21-0.04-0.33,0.11c-0.12,0.15-0.27,0.31-0.47,0.48c-0.27,0.24-1.01,0.91-2.92,1.13c-2.04,0.21-4.73,0.22-8.15,0.27
		c-0.08-3.11-0.92-4.69-2.32-5.77c-1.27-0.98-2.82-0.96-3.59-0.71c-1.49,0.48-2.58,1.66-3.5,2.86c-0.45,0.59-1.51,2.07-2,2.72
		c-0.31,0.4-1.28,1.55-2.06,2.55c-0.22,0.28-0.28,0.45-0.15,0.55c0.13,0.1,0.26,0.02,0.42-0.19c0.2-0.26,0.47-0.57,0.63-0.69
		c0.61-0.52,1.03-0.44,1.71,0.02c0.64,0.43,1.17,0.84,4.05,3.06L40.92,66.81z M35.05,58.71c-0.15-0.12-0.2-0.21-0.13-0.37
		c0.09-0.23,0.33-0.59,0.7-1.06c0.86-1.12,3.01-2.3,5.7-0.23c1.55,1.2,2,2.42,1.98,3.31c-0.02,0.53-0.13,0.83-0.72,1.59
		c-0.36,0.47-0.86,1-1.3,1.29c-0.16,0.09-0.26,0.07-0.47-0.09L35.05,58.71z M57.8,57.06c1.07-0.35,1.98-0.95,3.01-1.88
		c0.94-0.85,1.79-1.91,2.17-3.28c0.53-1.99-0.19-3.57-1.12-4.6c-1.53-1.69-3.38-2.17-7-1.9l-0.83,0.08
		c-2.48,0.21-3.45-0.04-4.19-0.86c-0.96-1.07-0.85-2.55,0.46-3.74c1.16-1.04,2.15-0.97,2.72-0.88c0.79,0.13,1.38,0.59,1.52,0.75
		c0.19,0.21,0.34,0.27,0.47,0.16c0.14-0.13,0.07-0.32-0.29-0.71c-1.25-1.38-1.64-1.96-1.85-2.19c-0.11-0.12-0.25-0.1-0.44,0.01
		c-0.57,0.29-1.48,0.79-2.63,1.83c-2.47,2.23-2.84,5.11-1.07,7.06c1.3,1.44,3.1,2.07,6.43,1.84l1.39-0.1c2.5-0.19,3.52,0.4,4.3,1.27
		c0.85,0.94,1.05,2.73-0.55,4.17c-1.1,0.99-2.58,1.46-4.16,0.5c-0.36-0.22-0.77-0.53-0.98-0.76c-0.13-0.14-0.29-0.28-0.45-0.14
		c-0.14,0.13-0.02,0.37,0.2,0.66c0.24,0.3,1.13,1.43,2.01,2.4C57.27,57.15,57.41,57.2,57.8,57.06 M66.1,41.57
		c1.31,1.91,2.38,3.47,2.85,4.37c0.33,0.61,0.44,1.03,0.11,1.38c-0.15,0.16-0.36,0.36-0.66,0.57c-0.24,0.16-0.27,0.27-0.21,0.37
		c0.1,0.14,0.27,0.1,0.53-0.07c0.79-0.54,1.99-1.45,2.45-1.76c0.53-0.36,1.81-1.16,3.12-2.05c0.22-0.15,0.33-0.32,0.24-0.45
		c-0.07-0.1-0.21-0.09-0.43,0.06c-0.29,0.2-0.75,0.46-1.06,0.61c-0.64,0.33-1.03,0.07-1.45-0.43c-0.66-0.8-1.73-2.35-3.04-4.27
		l-2.38-3.47c-2.06-3-2.44-3.55-2.83-4.21c-0.43-0.72-0.51-1.16-0.04-1.63c0.21-0.2,0.36-0.33,0.55-0.46
		c0.2-0.14,0.29-0.26,0.18-0.41c-0.08-0.12-0.27-0.05-0.52,0.13c-0.75,0.51-1.87,1.37-2.37,1.71c-0.57,0.39-1.85,1.19-2.6,1.7
		c-0.32,0.22-0.45,0.36-0.36,0.48c0.11,0.16,0.25,0.11,0.45-0.02c0.24-0.16,0.51-0.32,0.77-0.41c0.5-0.2,0.93,0,1.43,0.64
		c0.47,0.61,0.85,1.16,2.91,4.15L66.1,41.57z M78.86,33.88c0.97,1.98,1.8,3.67,2.14,4.63c0.24,0.65,0.35,1.19-0.04,1.49
		c-0.17,0.14-0.41,0.31-0.73,0.46c-0.26,0.13-0.31,0.23-0.26,0.34c0.07,0.15,0.25,0.14,0.53,0c0.86-0.42,2.18-1.15,2.68-1.39
		c0.6-0.3,1.99-0.9,3.4-1.59c0.24-0.12,0.38-0.27,0.3-0.41c-0.05-0.11-0.19-0.12-0.43,0c-0.32,0.16-0.82,0.35-1.14,0.45
		c-0.69,0.23-1.05-0.18-1.41-0.75c-0.56-0.87-1.39-2.57-2.36-4.54l-4.32-8.81l2.74-1.26c1.93-0.9,2.81-0.58,3.12-0.04l0.14,0.23
		c0.18,0.31,0.28,0.4,0.45,0.31c0.13-0.06,0.11-0.22,0.03-0.44c-0.28-0.56-0.94-2.07-1.16-2.52c-0.16-0.32-0.24-0.44-0.39-0.37
		c-0.09,0.04-0.24,0.17-0.53,0.39c-0.3,0.2-0.74,0.49-1.43,0.83l-8.51,4.17c-0.71,0.35-1.55,0.7-2.2,0.95
		c-0.56,0.22-0.88,0.11-1.05,0.19c-0.13,0.06-0.13,0.22-0.06,0.53c0.04,0.19,0.59,2.35,0.76,2.69c0.12,0.23,0.21,0.32,0.36,0.25
		c0.13-0.06,0.15-0.18,0.11-0.37c-0.04-0.19-0.06-0.5,0-0.93c0.09-0.63,0.55-0.99,1.78-1.64l3.16-1.66L78.86,33.88z M96.3,29.78
		c0.11,0.37,0.38,1.34,0.59,2.32c0.14,0.68,0.08,1.25-0.35,1.47c-0.19,0.11-0.46,0.23-0.78,0.32c-0.25,0.07-0.35,0.17-0.32,0.29
		c0.05,0.19,0.25,0.18,0.57,0.09c0.85-0.24,2.28-0.73,2.86-0.89c0.62-0.18,2.09-0.52,3.54-0.94c0.3-0.09,0.46-0.21,0.42-0.37
		c-0.03-0.11-0.17-0.15-0.42-0.08c-0.32,0.09-0.84,0.19-1.18,0.24c-0.72,0.11-1.07-0.34-1.3-0.99c-0.35-0.95-0.62-1.91-0.73-2.28
		l-0.54-1.89c-0.22-0.76-0.42-1.47-0.31-2.4c0.13-1.11,1.8-7.43,2.3-8.57c0.33-0.77,0.5-1.11,0.92-1.48c0.29-0.28,0.7-0.5,0.93-0.57
		c0.25-0.07,0.42-0.19,0.37-0.35c-0.04-0.14-0.22-0.14-0.47-0.07c-0.44,0.12-1.94,0.63-2.44,0.77c-0.67,0.19-1.42,0.33-2.18,0.55
		c-0.27,0.07-0.38,0.16-0.33,0.32c0.04,0.14,0.26,0.13,0.48,0.11c0.42-0.02,0.58,0.21,0.65,0.44c0.09,0.3,0.11,0.72,0.02,1.29
		c-0.12,0.81-1.57,6.69-1.64,7.31c-0.55-0.54-5.36-5.16-5.88-5.76c-0.25-0.28-0.45-0.52-0.5-0.7c-0.05-0.18,0.01-0.4,0.2-0.51
		c0.32-0.19,0.47-0.26,0.43-0.4c-0.04-0.14-0.17-0.18-0.4-0.11c-1.03,0.3-1.96,0.63-2.44,0.77c-0.76,0.22-2.5,0.64-2.92,0.76
		c-0.28,0.08-0.42,0.19-0.38,0.33c0.05,0.16,0.22,0.16,0.4,0.11c0.28-0.08,0.7-0.05,1.05,0.02c0.51,0.13,1.25,0.54,2.07,1.22
		c1.15,0.97,5.68,5.14,5.94,5.47c0.49,0.58,0.86,1.02,1.22,2.26L96.3,29.78z M115.75,20.72c-0.01,4.23,2.74,9.39,9.61,9.42
		c6.06,0.02,9.91-4.29,9.93-9.77c0.02-5.48-3.67-8.96-9.62-8.99C118.49,11.35,115.77,16.63,115.75,20.72 M131.93,21.24
		c-0.03,6.91-3.91,7.71-5.57,7.71c-4.59-0.02-7.32-3.98-7.3-8.95c0.02-5.96,3.16-7.48,5.92-7.46
		C128.88,12.54,131.96,15.88,131.93,21.24 M143.51,22.55c0.03-0.17,0.09-0.2,0.2-0.18c0.4,0.07,2.9,0.53,3.47,0.71
		c0.71,0.23,0.99,0.72,1.04,1.07c0.04,0.3,0.04,0.59,0.01,0.75c-0.03,0.17-0.02,0.34,0.12,0.36c0.24,0.04,0.28-0.19,0.32-0.4
		c0.03-0.16,0.28-1.24,0.41-1.7c0.2-0.72,0.43-1.28,0.46-1.42c0.03-0.14-0.01-0.22-0.1-0.24c-0.14-0.03-0.21,0.06-0.35,0.18
		c-0.29,0.26-0.64,0.3-1.09,0.24c-0.33-0.04-0.66-0.09-1.06-0.17l-3.02-0.53c-0.14-0.02-0.15-0.1-0.13-0.24l1.08-5.88
		c0.04-0.26,0.13-0.32,0.27-0.29l3.61,0.74c0.89,0.19,1.32,0.63,1.42,0.99c0.08,0.35,0.01,0.73-0.02,0.92
		c-0.02,0.26,0,0.39,0.17,0.42c0.16,0.03,0.24-0.11,0.3-0.29c0.1-0.27,0.4-1.66,0.47-1.89c0.18-0.6,0.35-0.86,0.38-1.03
		c0.02-0.12-0.03-0.22-0.13-0.24c-0.12-0.02-0.25,0.05-0.4,0.07c-0.25,0.03-0.53-0.02-0.98-0.08c-0.55-0.07-5.32-0.95-6.22-1.11
		c-0.68-0.12-2.15-0.47-3.38-0.69c-0.35-0.06-0.55-0.05-0.58,0.14c-0.03,0.14,0.13,0.22,0.36,0.26c0.33,0.06,0.72,0.16,0.91,0.24
		c0.75,0.31,0.86,0.72,0.77,1.53c-0.09,0.76-0.21,1.42-0.87,5l-0.76,4.14c-0.41,2.26-0.74,4.02-1.04,4.99
		c-0.22,0.67-0.43,1.16-0.92,1.17c-0.22,0.01-0.51,0-0.87-0.06c-0.26-0.05-0.37,0-0.39,0.12c-0.04,0.19,0.12,0.27,0.45,0.33
		c0.89,0.17,2.39,0.37,3,0.48c0.61,0.11,2.08,0.45,3.56,0.72c0.35,0.06,0.53,0.02,0.56-0.14c0.02-0.12-0.06-0.2-0.37-0.26
		c-0.33-0.06-0.84-0.2-1.16-0.31c-0.69-0.22-0.74-0.77-0.68-1.46c0.06-1.01,0.39-2.77,0.8-5.03L143.51,22.55z M163.88,37.21
		c-0.12,0.64-0.13,0.93,0.08,1.04c0.25,0.14,0.49-0.06,1.35-0.72c1.93-1.48,8.66-7.52,9.63-8.39l0.04,0.02l-1.12,12.93
		c-0.09,0.95-0.1,1.27,0.12,1.38c0.28,0.14,0.52-0.06,1.14-0.68c2.69-2.64,8.44-8.23,10.8-10.4c1.07-0.98,1.75-1.71,2.36-1.63
		c0.28,0.04,0.59,0.17,0.8,0.28c0.19,0.1,0.33,0.09,0.41-0.06c0.07-0.13-0.06-0.25-0.29-0.37c-0.7-0.36-1.64-0.77-1.79-0.85
		c-0.19-0.1-1.05-0.63-2.17-1.21c-0.32-0.17-0.51-0.21-0.59-0.06c-0.07,0.13,0.05,0.27,0.26,0.38c0.83,0.43,0.87,0.83,0.69,1.17
		c-0.15,0.3-0.45,0.71-0.85,1.12c-2.03,2.1-6.65,6.81-7.77,8.04l-0.06-0.03l1.14-12.97c0.08-0.82,0.14-1.2-0.1-1.32
		c-0.17-0.09-0.38,0.02-0.93,0.49l-9.87,8.91l-0.06-0.03c0.24-1.39,1.61-8.85,1.98-10.43c0.24-1.09,0.41-1.92,0.55-2.2
		c0.12-0.23,0.24-0.36,0.48-0.34c0.19-0.01,0.4,0.1,0.57,0.19c0.21,0.11,0.39,0.18,0.48,0.01c0.07-0.13-0.05-0.27-0.35-0.42
		c-1.23-0.64-2.2-1.06-2.39-1.16c-0.19-0.1-1.33-0.77-2.43-1.35c-0.3-0.15-0.49-0.2-0.57-0.05c-0.09,0.17,0.03,0.26,0.24,0.37
		c0.19,0.1,0.59,0.36,0.75,0.63c0.19,0.37,0.15,1,0,1.92L163.88,37.21z M191.09,47.89c0.09,0.07,0.12,0.16,0.08,0.28l-1.75,5.13
		c-0.09,0.3-0.36,0.36-0.51,0.29c-0.2-0.14-0.3-0.16-0.4-0.05c-0.11,0.13,0.12,0.31,0.43,0.6c1.45,1.25,2.79,2.36,3.46,2.91
		c0.68,0.56,0.88,0.66,1,0.51c0.11-0.13,0.03-0.22-0.12-0.34c-0.22-0.19-0.48-0.43-0.71-0.71c-0.32-0.41-0.64-1.11,0.03-3.35
		c1.13-3.78,4.38-13.75,4.78-15.12c0.16-0.58,0.19-0.83,0.02-0.97c-0.19-0.15-0.46-0.04-1.12,0.31l-14.19,7.77
		c-1.13,0.62-2,0.96-2.94,0.37c-0.16-0.1-0.44-0.3-0.6-0.44c-0.15-0.12-0.25-0.15-0.34-0.03c-0.12,0.15-0.04,0.28,0.2,0.47
		c0.96,0.79,2.02,1.57,2.22,1.74c0.57,0.47,1.32,1.18,1.91,1.67c0.2,0.17,0.35,0.22,0.47,0.07c0.09-0.11,0.07-0.2-0.15-0.38
		l-0.28-0.23c-0.57-0.47-0.54-0.85-0.27-1.18c0.19-0.22,0.64-0.59,1.21-0.9l3.17-1.82c0.13-0.08,0.2-0.09,0.29-0.01L191.09,47.89z
		 M188.1,43.88c-0.07-0.06-0.05-0.13,0.03-0.19l5.44-3.14c0.08-0.06,0.19-0.12,0.25-0.07c0.06,0.05,0,0.15-0.04,0.24l-2.1,5.93
		c-0.03,0.07-0.09,0.11-0.19,0.04L188.1,43.88z M201.16,56.75c-1.65,1.45-3.08,2.69-3.91,3.27c-0.57,0.4-1.06,0.64-1.45,0.35
		c-0.18-0.13-0.4-0.32-0.64-0.59c-0.19-0.21-0.31-0.24-0.4-0.16c-0.12,0.11-0.07,0.28,0.13,0.52c0.63,0.72,1.68,1.8,2.04,2.22
		c0.44,0.5,1.38,1.68,2.42,2.87c0.17,0.2,0.36,0.3,0.48,0.18c0.09-0.08,0.06-0.22-0.11-0.41c-0.24-0.27-0.55-0.7-0.73-0.98
		c-0.4-0.6-0.1-1.06,0.36-1.55c0.7-0.77,2.11-2.01,3.77-3.46l7.38-6.46l1.93,2.31c1.37,1.63,1.29,2.56,0.85,3.01l-0.18,0.19
		c-0.25,0.25-0.31,0.37-0.19,0.51c0.09,0.11,0.23,0.05,0.43-0.09c0.47-0.41,1.76-1.44,2.14-1.77c0.27-0.24,0.36-0.35,0.25-0.48
		c-0.06-0.07-0.22-0.19-0.51-0.41c-0.27-0.24-0.67-0.59-1.18-1.16l-6.24-7.13c-0.52-0.59-1.08-1.31-1.48-1.88
		c-0.36-0.48-0.34-0.82-0.46-0.96c-0.1-0.11-0.25-0.07-0.53,0.09c-0.17,0.09-2.11,1.18-2.4,1.43c-0.2,0.18-0.25,0.29-0.15,0.42
		c0.09,0.11,0.21,0.1,0.39,0.01c0.18-0.09,0.47-0.19,0.9-0.25c0.63-0.08,1.1,0.28,2.05,1.29l2.42,2.62L201.16,56.75z M209.98,67.95
		c-1.87,1.17-3.47,2.17-4.39,2.6c-0.64,0.29-1.15,0.46-1.48,0.11c-0.15-0.16-0.35-0.38-0.54-0.68c-0.15-0.24-0.27-0.29-0.36-0.22
		c-0.14,0.09-0.11,0.27,0.05,0.53c0.51,0.81,1.36,2.05,1.66,2.52c0.75,1.2,1.48,2.63,3.39,5.7c0.48,0.77,0.6,0.95,1.21,0.77
		c0.47-0.15,1.95-0.85,2.42-1.14c0.2-0.13,0.36-0.23,0.26-0.39c-0.09-0.14-0.19-0.13-0.44-0.03c-0.92,0.38-1.5,0.4-2.07,0.03
		c-0.57-0.38-1.11-1.23-1.43-1.76c-1.29-2.07-1.19-2.58,0.18-3.5c0.57-0.39,2.45-1.53,3.14-1.96l1.6-1c0.12-0.07,0.22-0.11,0.28,0
		c0.3,0.49,1.54,2.51,1.74,2.92c0.39,0.8,0.26,1.27-0.08,1.63c-0.23,0.22-0.49,0.39-0.68,0.54c-0.1,0.06-0.15,0.16-0.07,0.3
		c0.11,0.18,0.33,0.04,0.5-0.06c0.14-0.09,0.98-0.56,1.41-0.77c1.07-0.58,1.46-0.69,1.58-0.76c0.12-0.08,0.12-0.16,0.07-0.24
		c-0.06-0.1-0.22-0.12-0.47-0.16c-0.32-0.06-0.57-0.32-0.92-0.78c-0.33-0.44-1.79-2.78-2.07-3.22c-0.08-0.12-0.01-0.19,0.13-0.28
		l5.14-3.21c0.14-0.09,0.23-0.09,0.29,0.01c0.25,0.41,1.54,2.56,1.72,2.93c0.51,1.09,0.4,1.45,0.12,1.82
		c-0.18,0.25-0.51,0.49-0.65,0.58c-0.18,0.11-0.26,0.22-0.17,0.36c0.09,0.14,0.23,0.11,0.35,0.06c0.27-0.11,1.19-0.62,1.4-0.73
		c0.97-0.52,1.28-0.57,1.42-0.66c0.1-0.06,0.17-0.14,0.11-0.23c-0.06-0.1-0.2-0.19-0.28-0.27c-0.14-0.14-0.39-0.44-0.67-0.8
		c-0.26-0.38-2.78-4.41-3.19-5.06c-0.35-0.57-1.09-1.89-1.76-2.96c-0.19-0.3-0.32-0.42-0.46-0.33c-0.14,0.09-0.11,0.24,0.03,0.46
		c0.18,0.28,0.37,0.64,0.43,0.83c0.28,0.76,0.05,1.12-0.61,1.59c-0.62,0.44-1.19,0.8-4.28,2.73L209.98,67.95z M218.16,82.33
		c-2.04,0.82-3.8,1.53-4.77,1.79c-0.68,0.17-1.21,0.25-1.48-0.15c-0.13-0.18-0.28-0.43-0.41-0.76c-0.11-0.27-0.21-0.33-0.32-0.28
		c-0.16,0.06-0.16,0.24-0.04,0.53c0.36,0.89,0.98,2.26,1.15,2.68c0.14,0.33,0.73,2,1.24,3.29c0.12,0.29,0.24,0.41,0.4,0.35
		c0.11-0.04,0.14-0.16,0.07-0.34c-0.11-0.27-0.26-0.77-0.35-1.12c-0.18-0.7,0.26-1.03,0.87-1.36c0.89-0.48,2.64-1.19,4.71-2.02
		l0.31-0.12c0.13-0.05,0.2-0.01,0.25,0.11l0.73,1.95c0.06,0.15,0.09,0.3,0,0.46c-0.22,0.42-1.32,2.05-2.18,3.43
		c-1.21,1.93-1.92,3.19-2.04,4.35c-0.08,0.7,0.03,1.3,0.53,2.55l0.85,2.11c0.11,0.27,0.21,0.41,0.39,0.33
		c0.11-0.05,0.14-0.16,0.07-0.34c-0.07-0.18-0.13-0.39-0.18-0.65c-0.07-0.36-0.28-1.33,0.51-3.09c0.85-1.86,2.21-4.19,3.9-7.16
		c2.72,1.51,4.51,1.59,6.15,0.93c1.49-0.59,2.26-1.94,2.44-2.73c0.34-1.53-0.12-3.07-0.69-4.47c-0.27-0.69-1.02-2.35-1.32-3.1
		c-0.19-0.47-0.68-1.89-1.15-3.07c-0.14-0.33-0.24-0.47-0.4-0.41c-0.16,0.06-0.15,0.21-0.05,0.46c0.12,0.31,0.25,0.7,0.28,0.89
		c0.14,0.79-0.15,1.11-0.88,1.46c-0.69,0.33-1.31,0.58-4.69,1.93L218.16,82.33z M228.11,81.38c0.18-0.07,0.28-0.06,0.39,0.07
		c0.15,0.2,0.34,0.58,0.56,1.14c0.53,1.31,0.45,3.76-2.7,5.03c-1.82,0.73-3.1,0.5-3.86,0.03c-0.45-0.28-0.66-0.54-1.01-1.42
		c-0.22-0.56-0.42-1.25-0.45-1.78c0.01-0.18,0.07-0.26,0.32-0.36L228.11,81.38z M229.44,103.75c3.56-0.72,4.22-0.85,4.98-0.95
		c0.83-0.12,1.27-0.01,1.51,0.6c0.11,0.27,0.2,0.64,0.25,0.9c0.06,0.28,0.13,0.41,0.3,0.38c0.16-0.04,0.18-0.21,0.11-0.54
		c-0.18-0.91-0.6-2.61-0.71-3.18c-0.13-0.63-0.35-2.13-0.57-3.23c-0.07-0.35-0.15-0.51-0.32-0.47c-0.17,0.04-0.18,0.19-0.13,0.44
		c0.06,0.3,0.09,0.59,0.09,0.79c-0.01,0.81-0.35,1.07-1.14,1.28c-0.74,0.2-1.4,0.33-4.96,1.05l-4.13,0.83
		c-2.16,0.43-4.01,0.81-5.02,0.89c-0.7,0.04-1.24,0.03-1.43-0.42c-0.09-0.2-0.19-0.48-0.26-0.83c-0.06-0.28-0.14-0.36-0.26-0.34
		c-0.17,0.03-0.2,0.21-0.14,0.52c0.19,0.94,0.55,2.4,0.66,2.94c0.38,1.9,0.55,3.48,1.23,6.85c0.25,1.22,0.38,1.31,0.93,1.35
		c0.72,0.05,2.51-0.14,2.77-0.19c0.28-0.06,0.4-0.11,0.36-0.27c-0.04-0.19-0.19-0.2-0.4-0.19c-0.45,0.04-1.17-0.11-1.53-0.32
		c-0.75-0.46-0.96-1.37-1.21-2.61c-0.37-1.83-0.32-2.47-0.05-2.94c0.32-0.58,1.94-0.9,4.94-1.51L229.44,103.75z M229.42,114.67
		c-4.23,0.03-9.36,2.84-9.31,9.7c0.04,6.08,4.39,9.88,9.87,9.84c5.48-0.04,8.92-3.77,8.88-9.72
		C238.81,117.31,233.51,114.64,229.42,114.67 M229.07,130.86c-6.91,0.05-7.75-3.82-7.76-5.5c-0.03-4.59,3.9-7.37,8.88-7.4
		c5.96-0.04,7.51,3.08,7.53,5.83C237.74,127.72,234.43,130.82,229.07,130.86 M229.06,138.88c-4.13-0.94-9.76,0.62-11.28,7.32
		c-1.35,5.92,2.02,10.62,7.37,11.83c5.34,1.22,9.55-1.63,10.87-7.44C237.6,143.6,233.04,139.79,229.06,138.88 M225.02,154.57
		c-6.74-1.53-6.67-5.49-6.3-7.13c1.02-4.48,5.48-6.29,10.33-5.18c5.8,1.32,6.61,4.72,5.99,7.4
		C234.17,153.49,230.24,155.76,225.02,154.57 M30.98,180.58c-0.22,1.66,0.32,3.23,1.37,4.81c0.49,0.74,1.15,1.57,1.65,1.91
		c0.21,0.14,0.3,0.15,0.54,0.08c0.47-0.14,1.57-0.67,1.71-0.77c0.09-0.06,0.16-0.14,0.11-0.22c-0.06-0.1-0.12-0.09-0.33,0
		c-0.24,0.09-0.67,0.16-1.03,0.11c-0.84-0.11-1.37-0.66-2.05-1.69c-1.03-1.55-1.05-4.56,1.71-6.38c1.12-0.75,2.37-1.25,3.71-0.92
		c0.8,0.2,1.49,0.69,2.16,1.7c0.71,1.07,0.99,2.18,0.84,2.83c-0.11,0.49-0.42,0.91-0.77,1.16c-0.16,0.11-0.24,0.19-0.18,0.28
		c0.07,0.1,0.18,0.07,0.36-0.04c0.25-0.13,0.88-0.56,1.27-0.79c0.42-0.24,0.58-0.3,0.68-0.36c0.07-0.04,0.1-0.13,0.02-0.27
		c-0.19-0.37-0.34-0.81-0.57-1.29c-0.28-0.58-0.52-1.04-1-1.76c-1.14-1.73-2.34-2.52-3.65-2.85c-1.76-0.44-3.29,0.22-4.07,0.74
		C32.32,177.62,31.22,178.79,30.98,180.58 M39.65,186.47c-1.88,1.58-3.13,4.74-0.56,7.8c2.27,2.7,5.63,2.79,8.07,0.74
		c2.44-2.05,2.59-5,0.36-7.65C44.84,184.16,41.47,184.94,39.65,186.47 M45.51,193.84c-3.08,2.59-4.89,1.17-5.51,0.42
		c-1.72-2.04-0.99-4.74,1.22-6.6c2.65-2.23,4.5-1.41,5.53-0.18C48.22,189.22,47.89,191.84,45.51,193.84 M51.43,196.09l0.03,0.03
		c0.01,0.36-0.05,2.69,0.04,4.82c0.08,2.03,0.15,4.58,0.22,5.79c0.01,0.22,0.02,0.44,0.14,0.55c0.09,0.09,0.22,0.03,0.43-0.19
		l6.08-6.33c0.54-0.56,0.82-0.7,1.18-0.52c0.15,0.08,0.23,0.16,0.33,0.25c0.12,0.12,0.21,0.14,0.27,0.08
		c0.08-0.08-0.01-0.19-0.15-0.31c-0.5-0.46-0.91-0.79-1.03-0.9c-0.21-0.2-0.67-0.69-1.21-1.18c-0.15-0.14-0.27-0.24-0.35-0.15
		c-0.06,0.06-0.04,0.13,0.08,0.24c0.14,0.13,0.39,0.36,0.49,0.56c0.15,0.33,0.06,0.61-0.51,1.24l-4.15,4.67l-0.05-0.05
		c-0.02-0.32-0.03-3.07-0.09-4.4c-0.11-2.86-0.12-5.96-0.12-6.21c0-0.35,0.03-0.56-0.08-0.67c-0.1-0.09-0.27,0.02-0.45,0.22
		l-5.69,5.95c-0.83,0.88-1.15,1.13-1.49,0.97c-0.18-0.09-0.37-0.25-0.5-0.37c-0.1-0.09-0.18-0.13-0.24-0.07
		c-0.09,0.09,0,0.19,0.13,0.31c0.53,0.49,1.04,0.91,1.13,0.99c0.19,0.18,0.57,0.59,1.24,1.2c0.14,0.13,0.25,0.2,0.33,0.11
		c0.06-0.06,0.01-0.14-0.1-0.24c-0.16-0.15-0.35-0.34-0.46-0.57c-0.14-0.26-0.02-0.65,0.69-1.46L51.43,196.09z M57.16,209.63
		c0.37,1.63,1.41,2.92,2.95,4.04c0.72,0.53,1.63,1.07,2.21,1.22c0.25,0.06,0.33,0.04,0.53-0.11c0.39-0.3,1.24-1.17,1.34-1.31
		c0.07-0.09,0.1-0.18,0.02-0.24c-0.09-0.07-0.14-0.04-0.31,0.12c-0.19,0.17-0.58,0.39-0.92,0.46c-0.83,0.19-1.51-0.14-2.51-0.88
		c-1.5-1.1-2.56-3.91-0.61-6.58c0.8-1.09,1.79-2,3.16-2.15c0.82-0.09,1.64,0.14,2.62,0.85c1.03,0.76,1.68,1.7,1.77,2.37
		c0.07,0.5-0.07,1-0.32,1.35c-0.12,0.16-0.16,0.27-0.07,0.33c0.1,0.07,0.19,0,0.32-0.16c0.19-0.21,0.63-0.83,0.92-1.19
		c0.31-0.38,0.44-0.48,0.51-0.58c0.05-0.07,0.04-0.15-0.07-0.26c-0.31-0.28-0.6-0.64-0.98-1.01c-0.47-0.45-0.85-0.79-1.54-1.3
		c-1.67-1.23-3.07-1.56-4.41-1.41c-1.8,0.2-3.01,1.34-3.57,2.11C57.39,206.39,56.77,207.86,57.16,209.63 M67.33,212.15
		c-1.22,2.14-1.3,5.53,2.17,7.51c3.07,1.75,6.25,0.67,7.83-2.1c1.58-2.77,0.7-5.59-2.31-7.3C71.4,208.19,68.51,210.08,67.33,212.15
		 M75.38,217.04c-1.99,3.49-4.18,2.79-5.03,2.3c-2.32-1.32-2.57-4.11-1.14-6.62c1.72-3.01,3.74-2.88,5.13-2.09
		C76.32,211.77,76.92,214.33,75.38,217.04 M79.61,220.17c-0.51,1.17-0.94,2.18-1.24,2.69c-0.21,0.35-0.4,0.6-0.67,0.54
		c-0.13-0.02-0.29-0.06-0.48-0.15c-0.15-0.07-0.22-0.05-0.25,0.02c-0.04,0.09,0.03,0.16,0.2,0.24c0.51,0.22,1.33,0.53,1.57,0.63
		c0.19,0.09,1.12,0.53,1.86,0.85c0.17,0.07,0.27,0.07,0.31-0.01c0.03-0.06-0.01-0.13-0.11-0.17c-0.15-0.07-0.43-0.21-0.61-0.32
		c-0.36-0.22-0.32-0.53-0.2-0.92c0.17-0.56,0.6-1.57,1.12-2.76l0.08-0.18c0.03-0.07,0.08-0.08,0.14-0.06l1.1,0.51
		c0.09,0.04,0.16,0.08,0.19,0.19c0.08,0.26,0.3,1.38,0.5,2.31c0.29,1.29,0.52,2.1,0.94,2.63c0.25,0.32,0.54,0.52,1.26,0.83
		l1.21,0.53c0.15,0.07,0.25,0.08,0.3-0.02c0.03-0.06-0.01-0.12-0.11-0.17c-0.1-0.04-0.21-0.1-0.34-0.19
		c-0.18-0.12-0.66-0.44-1.06-1.48c-0.41-1.12-0.8-2.63-1.32-4.55c1.74-0.49,2.51-1.19,2.92-2.13c0.37-0.85,0.14-1.73-0.11-2.12
		c-0.48-0.77-1.31-1.22-2.11-1.56c-0.4-0.17-1.38-0.55-1.82-0.74c-0.27-0.11-1.06-0.5-1.73-0.79c-0.19-0.08-0.29-0.1-0.33-0.01
		c-0.04,0.09,0.03,0.15,0.17,0.21c0.18,0.08,0.39,0.18,0.48,0.25c0.38,0.27,0.4,0.52,0.24,0.96c-0.15,0.42-0.3,0.78-1.14,2.72
		L79.61,220.17z M83.33,215.7c0.04-0.1,0.09-0.14,0.19-0.13c0.15,0.02,0.38,0.1,0.7,0.24c0.75,0.32,1.73,1.37,0.95,3.18
		c-0.45,1.05-1.08,1.48-1.58,1.59c-0.3,0.07-0.49,0.05-1-0.17c-0.32-0.14-0.69-0.34-0.91-0.54c-0.07-0.08-0.08-0.14-0.02-0.28
		L83.33,215.7z M89.72,224.3c-0.37,1.22-0.69,2.28-0.92,2.81c-0.17,0.37-0.33,0.64-0.61,0.62c-0.13-0.01-0.3-0.03-0.49-0.09
		c-0.16-0.05-0.22-0.02-0.25,0.04c-0.03,0.09,0.05,0.16,0.23,0.21c0.53,0.16,1.38,0.37,1.69,0.47c0.66,0.2,1.81,0.72,2.79,1.02
		c2.46,0.74,4.13,0.22,4.93-0.22c0.97-0.53,2.07-1.6,2.57-3.28c0.48-1.58,0.19-2.88-0.27-3.77c-0.99-1.95-3.21-2.63-4.88-3.13
		c-0.8-0.24-1.65-0.45-2.06-0.58c-0.37-0.11-1.2-0.41-1.9-0.62c-0.2-0.06-0.3-0.06-0.33,0.03c-0.03,0.09,0.04,0.14,0.19,0.19
		c0.19,0.06,0.41,0.14,0.51,0.2c0.41,0.22,0.45,0.47,0.34,0.93c-0.1,0.43-0.21,0.81-0.83,2.83L89.72,224.3z M92.16,222.25
		c0.32-1.05,0.67-2.21,0.82-2.66c0.04-0.15,0.11-0.2,0.24-0.22c0.12-0.02,0.63,0.09,0.9,0.17c1.04,0.31,2.51,0.93,3.38,2.47
		c0.41,0.72,0.78,2.02,0.27,3.71c-0.41,1.37-1.05,2.5-2.12,2.98c-1.01,0.45-1.99,0.44-3.35,0.03c-1.05-0.32-1.49-0.75-1.58-1.06
		c-0.06-0.18,0.07-0.72,0.16-1.06c0.06-0.26,0.36-1.29,0.79-2.7L92.16,222.25z M102.49,227.77c-0.27,1.32-0.49,2.4-0.67,2.95
		c-0.12,0.39-0.25,0.6-0.53,0.6c-0.13,0-0.3,0-0.5-0.05c-0.17-0.03-0.23,0-0.24,0.07c-0.02,0.1,0.07,0.15,0.25,0.19
		c0.54,0.11,1.41,0.25,1.72,0.31c0.37,0.07,1.22,0.29,2.12,0.47c0.15,0.03,0.27,0.01,0.29-0.08c0.01-0.07-0.05-0.12-0.2-0.15
		c-0.2-0.04-0.5-0.13-0.68-0.2c-0.4-0.14-0.44-0.4-0.41-0.78c0.07-0.6,0.28-1.68,0.56-3l0.49-2.4c0.42-2.07,0.5-2.45,0.62-2.88
		c0.12-0.47,0.28-0.68,0.66-0.67c0.17,0.01,0.28,0.02,0.42,0.04c0.14,0.03,0.22,0.02,0.24-0.09c0.02-0.08-0.09-0.13-0.26-0.17
		c-0.52-0.11-1.33-0.23-1.67-0.3c-0.4-0.08-1.24-0.3-1.76-0.4c-0.22-0.04-0.33-0.04-0.35,0.04c-0.02,0.11,0.06,0.15,0.19,0.18
		c0.16,0.03,0.34,0.08,0.48,0.15c0.29,0.13,0.38,0.39,0.31,0.86c-0.06,0.44-0.14,0.82-0.56,2.89L102.49,227.77z M112.57,229.83
		c0.07,0.01,0.11,0.04,0.13,0.11l0.74,3.06c0.05,0.18-0.06,0.29-0.17,0.3c-0.14,0-0.2,0.02-0.21,0.1c-0.01,0.1,0.15,0.12,0.4,0.16
		c1.1,0.17,2.11,0.3,2.6,0.36c0.51,0.06,0.64,0.05,0.65-0.06c0.01-0.1-0.06-0.12-0.17-0.13c-0.16-0.02-0.37-0.06-0.57-0.13
		c-0.28-0.11-0.66-0.35-1.03-1.66c-0.62-2.21-2.12-8.11-2.36-8.91c-0.1-0.33-0.17-0.47-0.29-0.48c-0.14-0.02-0.24,0.12-0.46,0.5
		l-4.55,8.23c-0.36,0.65-0.69,1.09-1.33,1.1c-0.11,0-0.31-0.01-0.43-0.03c-0.11-0.01-0.17,0.01-0.18,0.09
		c-0.01,0.11,0.07,0.15,0.24,0.17c0.72,0.09,1.48,0.14,1.64,0.16c0.43,0.05,1.02,0.17,1.46,0.22c0.15,0.02,0.24,0,0.25-0.11
		c0.01-0.08-0.03-0.12-0.19-0.14l-0.21-0.03c-0.43-0.05-0.53-0.25-0.5-0.5c0.02-0.17,0.13-0.49,0.31-0.82l0.99-1.88
		c0.04-0.08,0.07-0.1,0.14-0.1L112.57,229.83z M109.86,228.79c-0.06-0.01-0.06-0.05-0.04-0.11l1.69-3.24
		c0.02-0.05,0.06-0.12,0.1-0.11c0.04,0,0.05,0.08,0.06,0.13l0.82,3.56c0.01,0.05-0.01,0.09-0.08,0.08L109.86,228.79z M123.7,232.89
		c1.28,1.08,2.88,1.47,4.78,1.45c0.89-0.01,1.94-0.13,2.5-0.36c0.23-0.1,0.29-0.17,0.36-0.41c0.13-0.47,0.28-1.69,0.28-1.85
		c0-0.11-0.03-0.21-0.13-0.21c-0.11,0-0.14,0.06-0.18,0.28c-0.05,0.25-0.23,0.66-0.46,0.92c-0.55,0.65-1.3,0.8-2.53,0.82
		c-1.85,0.02-4.39-1.58-4.43-4.89c-0.02-1.35,0.22-2.67,1.23-3.62c0.6-0.56,1.38-0.88,2.59-0.9c1.28-0.02,2.37,0.34,2.83,0.82
		c0.35,0.36,0.54,0.84,0.56,1.27c0,0.19,0.03,0.3,0.14,0.3c0.12,0,0.15-0.11,0.16-0.32c0.02-0.28,0-1.04,0.02-1.5
		c0.02-0.49,0.06-0.65,0.06-0.76c0-0.08-0.06-0.15-0.21-0.17c-0.42-0.04-0.87-0.15-1.39-0.22c-0.64-0.07-1.16-0.12-2.01-0.11
		c-2.06,0.03-3.37,0.61-4.36,1.54c-1.32,1.24-1.58,2.89-1.57,3.83C121.94,230.16,122.32,231.71,123.7,232.89 M134.33,229.42
		c0.25,2,0.9,2.95,1.69,3.5c1.12,0.79,2.45,0.66,3.18,0.57c0.9-0.11,1.87-0.39,2.75-1.35c1.03-1.14,0.98-2.79,0.79-4.32l-0.18-1.48
		c-0.26-2.1-0.31-2.48-0.34-2.93c-0.03-0.49,0.05-0.74,0.41-0.85c0.16-0.05,0.24-0.07,0.39-0.09c0.17-0.02,0.25-0.06,0.23-0.15
		c-0.01-0.1-0.11-0.11-0.31-0.09c-0.54,0.07-1.4,0.22-1.57,0.24c-0.01,0-0.89,0.07-1.59,0.15c-0.2,0.02-0.29,0.07-0.28,0.16
		c0.01,0.1,0.1,0.11,0.25,0.1c0.15-0.02,0.39-0.04,0.5-0.02c0.47,0.04,0.61,0.25,0.69,0.71c0.08,0.44,0.13,0.83,0.39,2.92l0.21,1.72
		c0.18,1.42,0.29,2.67-0.37,3.52c-0.48,0.62-1.21,0.91-1.81,0.98c-0.47,0.06-1.11,0.08-1.79-0.35c-0.75-0.47-1.25-1.26-1.5-3.26
		l-0.24-1.93c-0.26-2.1-0.31-2.48-0.34-2.93c-0.03-0.49,0.05-0.74,0.41-0.85c0.16-0.05,0.24-0.07,0.39-0.09
		c0.14-0.02,0.22-0.06,0.2-0.15c-0.01-0.1-0.11-0.11-0.32-0.09c-0.5,0.06-1.36,0.21-1.69,0.25c-0.41,0.05-1.29,0.12-2.02,0.21
		c-0.21,0.02-0.3,0.06-0.29,0.16c0.01,0.1,0.1,0.11,0.25,0.1c0.19-0.02,0.43-0.04,0.54-0.03c0.47,0.04,0.61,0.25,0.69,0.71
		c0.08,0.44,0.13,0.82,0.39,2.92L134.33,229.42z M146.76,230.82c0.05,0.48,0.07,1.03-0.28,1.21c-0.19,0.09-0.29,0.12-0.39,0.14
		c-0.14,0.03-0.21,0.08-0.19,0.15c0.03,0.12,0.15,0.12,0.28,0.09c0.43-0.11,1.07-0.31,1.32-0.38c0.24-0.06,0.86-0.17,1.42-0.32
		c0.2-0.05,0.32-0.11,0.29-0.23c-0.02-0.07-0.12-0.07-0.22-0.04c-0.14,0.03-0.33,0.07-0.59,0.07c-0.24,0-0.45-0.07-0.51-0.33
		c-0.05-0.22-0.08-0.4-0.12-0.64L147.1,225l0.06-0.01c0.73,0.89,1.97,2.38,2.16,2.64c0.26,0.33,1.85,2.13,2.33,2.66
		c0.32,0.35,0.52,0.59,0.64,0.56c0.12-0.03,0.16-0.17,0.31-0.88l1.38-6.86l0.05-0.01l2.32,5.72c0.15,0.36,0.15,0.55,0.08,0.6
		c-0.08,0.06-0.13,0.12-0.11,0.19c0.02,0.08,0.11,0.1,0.43,0.05c0.55-0.1,2.42-0.53,2.76-0.61c0.19-0.05,0.34-0.13,0.31-0.24
		c-0.02-0.08-0.12-0.07-0.24-0.04c-0.17,0.04-0.45,0.1-0.87,0.08c-0.43-0.02-0.67-0.37-1.01-1.19l-3.34-8.02
		c-0.11-0.27-0.23-0.39-0.35-0.36c-0.12,0.03-0.17,0.16-0.21,0.4l-1.71,8.63l-5.61-6.66c-0.26-0.31-0.36-0.35-0.47-0.33
		c-0.11,0.03-0.16,0.17-0.14,0.41L146.76,230.82z M168.8,224.62c0.5,0.49,0.66,0.64,0.82,0.57c0.18-0.08,0.17-0.32,0.18-1.2
		c0.01-0.76,0-2.41,0.01-4.63c0.01-1.87,0.06-2.71,0.04-4.12c-0.01-0.97,0.09-1.27,0.2-1.45c0.16-0.25,0.43-0.37,0.56-0.42
		c0.13-0.06,0.19-0.12,0.15-0.2c-0.04-0.09-0.15-0.07-0.32,0c-0.38,0.16-0.96,0.46-1.18,0.56c-0.17,0.07-0.72,0.27-1.35,0.54
		c-0.24,0.11-0.35,0.18-0.3,0.28c0.04,0.09,0.15,0.06,0.26,0.01c0.17-0.07,0.36-0.14,0.54-0.16c0.13-0.01,0.23,0.07,0.27,0.17
		c0.05,0.12,0.08,0.33,0.09,0.52c0.06,0.97,0.18,5.8,0.24,7.44l-0.05,0.02l-4.7-4.84c-0.38-0.38-0.65-0.69-0.72-0.85
		c-0.05-0.11-0.05-0.22,0.01-0.32c0.07-0.12,0.26-0.22,0.46-0.31c0.11-0.05,0.18-0.11,0.14-0.19c-0.04-0.09-0.19-0.06-0.34,0.01
		c-0.64,0.28-1.24,0.58-1.55,0.72c-0.45,0.19-1.19,0.47-1.87,0.76c-0.19,0.08-0.32,0.16-0.28,0.26c0.03,0.08,0.09,0.1,0.2,0.05
		c0.1-0.04,0.31-0.13,0.52-0.16c0.51-0.07,0.79-0.03,1.39,0.55L168.8,224.62z M174.88,218.03c0.61,1.12,1.14,2.09,1.36,2.63
		c0.14,0.38,0.23,0.68,0.01,0.87c-0.1,0.09-0.23,0.19-0.41,0.29c-0.15,0.08-0.17,0.14-0.14,0.2c0.05,0.09,0.15,0.07,0.31-0.01
		c0.49-0.27,1.24-0.72,1.52-0.88c0.72-0.39,1.58-0.77,3.42-1.77c0.46-0.25,0.57-0.32,0.49-0.68c-0.07-0.28-0.43-1.16-0.58-1.44
		c-0.07-0.12-0.12-0.22-0.22-0.17c-0.09,0.04-0.09,0.11-0.04,0.25c0.19,0.55,0.18,0.88-0.06,1.2c-0.24,0.32-0.75,0.6-1.07,0.77
		c-1.25,0.68-1.54,0.6-2.02-0.23c-0.21-0.35-0.81-1.48-1.03-1.89l-0.53-0.96c-0.04-0.07-0.06-0.13,0.01-0.16
		c0.29-0.16,1.51-0.81,1.75-0.91c0.48-0.2,0.75-0.11,0.94,0.1c0.12,0.14,0.21,0.3,0.29,0.41c0.04,0.06,0.09,0.1,0.17,0.05
		c0.11-0.06,0.04-0.19-0.02-0.29c-0.04-0.08-0.29-0.59-0.4-0.85c-0.3-0.64-0.35-0.87-0.39-0.94c-0.04-0.07-0.09-0.08-0.14-0.05
		c-0.06,0.03-0.08,0.12-0.11,0.27c-0.05,0.18-0.21,0.32-0.49,0.5c-0.27,0.18-1.67,0.94-1.94,1.09c-0.08,0.04-0.11,0-0.16-0.09
		l-1.69-3.09c-0.05-0.08-0.04-0.14,0.02-0.17c0.25-0.13,1.54-0.81,1.76-0.9c0.65-0.26,0.85-0.18,1.06,0
		c0.14,0.11,0.27,0.31,0.31,0.4c0.06,0.11,0.12,0.16,0.2,0.11c0.09-0.04,0.07-0.13,0.05-0.2c-0.06-0.16-0.32-0.71-0.38-0.84
		c-0.27-0.58-0.29-0.76-0.33-0.85c-0.04-0.06-0.07-0.1-0.14-0.07c-0.06,0.03-0.11,0.11-0.17,0.15c-0.09,0.08-0.27,0.21-0.49,0.36
		c-0.22,0.14-2.65,1.46-3.05,1.68c-0.34,0.19-1.13,0.57-1.78,0.92c-0.18,0.1-0.25,0.17-0.21,0.25c0.05,0.08,0.14,0.07,0.27,0
		c0.17-0.09,0.38-0.19,0.5-0.22c0.45-0.13,0.65,0.01,0.9,0.41c0.24,0.38,0.43,0.72,1.44,2.57L174.88,218.03z M182.83,213.48
		c0.71,1.06,1.33,1.97,1.59,2.5c0.18,0.36,0.29,0.66,0.09,0.86c-0.09,0.09-0.21,0.21-0.38,0.32c-0.14,0.09-0.16,0.16-0.12,0.22
		c0.05,0.08,0.16,0.06,0.31-0.04c0.46-0.31,1.17-0.83,1.38-0.98c0.17-0.12,1.05-0.66,1.72-1.11c0.15-0.1,0.21-0.19,0.15-0.27
		c-0.04-0.06-0.11-0.06-0.2,0c-0.14,0.09-0.41,0.24-0.6,0.33c-0.38,0.18-0.62-0.02-0.88-0.33c-0.38-0.45-1-1.36-1.72-2.43
		l-0.11-0.16c-0.05-0.07-0.03-0.12,0.03-0.16l1.02-0.65c0.08-0.05,0.16-0.09,0.26-0.06c0.27,0.07,1.32,0.5,2.21,0.82
		c1.25,0.45,2.05,0.7,2.72,0.63c0.41-0.04,0.74-0.18,1.38-0.61l1.1-0.74c0.14-0.09,0.2-0.17,0.14-0.26c-0.04-0.06-0.11-0.06-0.2,0
		c-0.09,0.06-0.2,0.12-0.35,0.18c-0.19,0.08-0.72,0.32-1.82,0.08c-1.16-0.26-2.65-0.75-4.54-1.35c0.53-1.73,0.36-2.75-0.22-3.61
		c-0.52-0.77-1.38-1.05-1.85-1.05c-0.91-0.01-1.73,0.44-2.46,0.93c-0.36,0.24-1.21,0.86-1.6,1.13c-0.24,0.16-0.99,0.62-1.6,1.03
		c-0.17,0.12-0.24,0.19-0.19,0.28c0.06,0.08,0.14,0.06,0.27-0.03c0.16-0.11,0.36-0.23,0.47-0.27c0.44-0.17,0.65-0.05,0.94,0.32
		c0.27,0.35,0.49,0.68,1.67,2.43L182.83,213.48z M181.08,207.94c-0.06-0.09-0.07-0.15,0-0.23c0.09-0.11,0.29-0.26,0.58-0.46
		c0.68-0.46,2.08-0.72,3.18,0.92c0.64,0.95,0.66,1.7,0.48,2.19c-0.11,0.29-0.23,0.44-0.69,0.75c-0.29,0.19-0.66,0.4-0.96,0.48
		c-0.1,0.02-0.16-0.01-0.24-0.14L181.08,207.94z M191.66,207.21c0.84,1.05,1.52,1.91,1.83,2.41c0.22,0.34,0.3,0.58,0.12,0.8
		c-0.08,0.1-0.19,0.23-0.36,0.36c-0.13,0.1-0.15,0.17-0.11,0.23c0.06,0.07,0.17,0.05,0.31-0.06c0.44-0.35,1.09-0.93,1.35-1.13
		c0.29-0.23,1.01-0.75,1.72-1.32c0.12-0.1,0.18-0.2,0.12-0.27c-0.04-0.06-0.12-0.04-0.25,0.05c-0.16,0.13-0.42,0.3-0.59,0.4
		c-0.36,0.22-0.59,0.08-0.86-0.19c-0.41-0.43-1.1-1.29-1.94-2.35l-1.52-1.92c-1.32-1.65-1.56-1.96-1.81-2.32
		c-0.28-0.4-0.34-0.65-0.09-0.94c0.11-0.12,0.19-0.2,0.3-0.29c0.11-0.09,0.16-0.16,0.09-0.25c-0.05-0.07-0.16-0.02-0.3,0.09
		c-0.41,0.33-1.03,0.87-1.3,1.09c-0.32,0.25-1.03,0.76-1.44,1.09c-0.17,0.14-0.24,0.23-0.19,0.3c0.07,0.09,0.15,0.06,0.26-0.03
		c0.13-0.11,0.28-0.21,0.43-0.27c0.28-0.14,0.54-0.04,0.86,0.32c0.3,0.33,0.54,0.64,1.85,2.29L191.66,207.21z M198.11,201.74
		c0.87,0.93,1.62,1.74,1.97,2.21c0.25,0.33,0.39,0.61,0.23,0.84c-0.07,0.11-0.17,0.24-0.33,0.38c-0.12,0.11-0.14,0.18-0.09,0.23
		c0.07,0.07,0.17,0.04,0.3-0.09c0.41-0.38,1.02-1.01,1.25-1.22c0.28-0.27,0.96-0.83,1.63-1.46c0.11-0.11,0.17-0.21,0.1-0.28
		c-0.05-0.05-0.12-0.03-0.24,0.07c-0.15,0.14-0.4,0.33-0.56,0.44c-0.34,0.25-0.61,0.08-0.91-0.18c-0.46-0.39-1.21-1.19-2.08-2.13
		l-3.88-4.18l1.31-1.16c0.93-0.82,1.47-0.79,1.73-0.55l0.12,0.1c0.15,0.15,0.22,0.18,0.3,0.1c0.06-0.06,0.02-0.14-0.06-0.25
		c-0.25-0.26-0.87-1-1.07-1.21c-0.14-0.15-0.21-0.21-0.28-0.14c-0.04,0.04-0.1,0.13-0.23,0.31c-0.14,0.16-0.33,0.4-0.66,0.7
		l-4.03,3.75c-0.34,0.31-0.74,0.65-1.07,0.9c-0.27,0.22-0.47,0.21-0.55,0.28c-0.06,0.06-0.04,0.15,0.06,0.31
		c0.06,0.1,0.72,1.21,0.88,1.37c0.1,0.11,0.17,0.14,0.24,0.08c0.06-0.06,0.05-0.13,0-0.23c-0.05-0.1-0.12-0.27-0.16-0.52
		c-0.06-0.37,0.14-0.64,0.71-1.21l1.48-1.45L198.11,201.74z M206.26,194.03c0.05-0.05,0.1-0.06,0.17-0.04l2.93,1.15
		c0.17,0.06,0.2,0.22,0.15,0.31c-0.09,0.11-0.1,0.17-0.04,0.23c0.07,0.07,0.18-0.06,0.36-0.24c0.77-0.8,1.45-1.56,1.78-1.93
		c0.35-0.38,0.41-0.49,0.33-0.57c-0.07-0.07-0.13-0.02-0.2,0.06c-0.11,0.12-0.26,0.27-0.43,0.4c-0.25,0.17-0.66,0.34-1.95-0.11
		c-2.16-0.76-7.86-2.92-8.65-3.18c-0.33-0.11-0.48-0.13-0.56-0.04c-0.09,0.1-0.04,0.27,0.15,0.66l4.13,8.45
		c0.33,0.67,0.5,1.19,0.14,1.72c-0.06,0.09-0.19,0.24-0.27,0.34c-0.07,0.08-0.09,0.14-0.03,0.2c0.08,0.08,0.16,0.03,0.28-0.1
		c0.48-0.54,0.97-1.13,1.07-1.24c0.29-0.32,0.72-0.74,1.02-1.07c0.1-0.11,0.14-0.19,0.06-0.27c-0.06-0.06-0.11-0.04-0.22,0.08
		l-0.14,0.16c-0.29,0.32-0.51,0.29-0.69,0.12c-0.12-0.11-0.32-0.39-0.49-0.72l-0.97-1.89c-0.04-0.08-0.05-0.12,0-0.17L206.26,194.03
		z M203.85,195.66c-0.04,0.04-0.07,0.02-0.11-0.02l-1.68-3.24c-0.03-0.05-0.07-0.12-0.04-0.15c0.03-0.03,0.09,0.01,0.14,0.03
		l3.39,1.38c0.04,0.02,0.06,0.05,0.01,0.11L203.85,195.66z M210.66,188.08c1.02,0.77,1.89,1.44,2.32,1.85
		c0.29,0.28,0.49,0.53,0.36,0.79c-0.06,0.12-0.13,0.27-0.26,0.43c-0.1,0.13-0.1,0.2-0.05,0.24c0.08,0.06,0.17,0.01,0.28-0.14
		c0.34-0.44,0.83-1.17,1.03-1.42c0.23-0.31,0.8-0.98,1.35-1.71c0.09-0.12,0.13-0.24,0.05-0.3c-0.06-0.04-0.13-0.01-0.22,0.11
		c-0.13,0.16-0.33,0.39-0.47,0.53c-0.3,0.3-0.59,0.18-0.93-0.02c-0.51-0.31-1.39-0.97-2.41-1.75l-4.54-3.45l1.09-1.37
		c0.77-0.97,1.31-1.03,1.61-0.83l0.13,0.08c0.18,0.12,0.25,0.14,0.32,0.05c0.05-0.06,0-0.14-0.1-0.23
		c-0.28-0.22-1.03-0.83-1.26-1.01c-0.17-0.13-0.24-0.17-0.3-0.09c-0.03,0.04-0.08,0.15-0.17,0.34c-0.1,0.18-0.25,0.45-0.52,0.81
		l-3.34,4.38c-0.28,0.37-0.62,0.77-0.9,1.07c-0.23,0.26-0.43,0.29-0.49,0.37c-0.05,0.07-0.01,0.15,0.11,0.29
		c0.07,0.09,0.92,1.06,1.1,1.2c0.12,0.09,0.2,0.11,0.25,0.04c0.05-0.07,0.03-0.13-0.04-0.22c-0.07-0.09-0.16-0.25-0.24-0.48
		c-0.12-0.35,0.03-0.66,0.49-1.32l1.21-1.68L210.66,188.08z M215.54,181.27c1.09,0.68,2.01,1.27,2.47,1.63
		c0.31,0.26,0.53,0.48,0.43,0.75c-0.04,0.12-0.11,0.28-0.22,0.45c-0.09,0.14-0.08,0.21-0.02,0.25c0.08,0.05,0.17-0.01,0.27-0.16
		c0.3-0.47,0.72-1.23,0.9-1.51c0.44-0.69,1-1.44,2.12-3.22c0.28-0.45,0.35-0.56,0.09-0.83c-0.2-0.21-0.94-0.8-1.21-0.97
		c-0.12-0.07-0.21-0.13-0.27-0.04c-0.05,0.09-0.02,0.14,0.09,0.24c0.43,0.39,0.59,0.68,0.54,1.08c-0.05,0.4-0.36,0.89-0.56,1.2
		c-0.75,1.2-1.05,1.28-1.88,0.79c-0.35-0.2-1.43-0.89-1.82-1.14l-0.93-0.59c-0.07-0.05-0.11-0.09-0.07-0.14
		c0.18-0.28,0.92-1.44,1.08-1.65c0.32-0.41,0.6-0.46,0.87-0.37c0.18,0.06,0.33,0.16,0.45,0.22c0.06,0.04,0.12,0.04,0.17-0.04
		c0.07-0.1-0.06-0.18-0.16-0.24c-0.08-0.05-0.54-0.37-0.76-0.54c-0.58-0.41-0.73-0.59-0.8-0.63c-0.07-0.04-0.12-0.02-0.15,0.02
		c-0.04,0.06-0.01,0.14,0.04,0.28c0.05,0.18-0.02,0.38-0.18,0.68c-0.15,0.28-1,1.64-1.16,1.9c-0.04,0.07-0.1,0.06-0.18,0l-2.98-1.87
		c-0.08-0.05-0.1-0.1-0.07-0.16c0.15-0.23,0.95-1.46,1.1-1.64c0.44-0.54,0.65-0.57,0.92-0.52c0.18,0.03,0.38,0.14,0.47,0.19
		c0.11,0.07,0.18,0.08,0.23-0.01c0.05-0.08,0-0.15-0.06-0.2c-0.13-0.11-0.63-0.46-0.74-0.55c-0.52-0.38-0.62-0.52-0.7-0.57
		c-0.06-0.04-0.12-0.05-0.15,0c-0.04,0.06-0.04,0.15-0.07,0.22c-0.04,0.11-0.13,0.31-0.25,0.55c-0.13,0.23-1.6,2.57-1.84,2.95
		c-0.21,0.33-0.71,1.05-1.1,1.67c-0.11,0.18-0.14,0.27-0.06,0.33c0.08,0.05,0.15,0,0.23-0.13c0.1-0.16,0.24-0.36,0.32-0.44
		c0.33-0.33,0.57-0.31,0.99-0.08c0.39,0.21,0.72,0.42,2.51,1.54L215.54,181.27z"/>
</g>
</svg>
